<?xml version="1.0" standalone="no"?>
<!DOCTYPE svg PUBLIC "-//W3C//DTD SVG 20010904//EN"
 "http://www.w3.org/TR/2001/REC-SVG-20010904/DTD/svg10.dtd">
<svg version="1.0" xmlns="http://www.w3.org/2000/svg"
 width="4340.000000pt" height="4344.000000pt" viewBox="0 0 4340.000000 4344.000000"
 preserveAspectRatio="xMidYMid meet">

<g transform="translate(0.000000,4344.000000) scale(0.100000,-0.100000)"
fill="#000000" stroke="none">
<path d="M20670 41760 c0 -19 -7 -20 -160 -20 -153 0 -160 -1 -160 -20 0 -19
-7 -20 -220 -20 -213 0 -220 -1 -220 -20 0 -19 -7 -20 -100 -20 -93 0 -100 -1
-100 -20 0 -19 -7 -20 -240 -20 -233 0 -240 -1 -240 -20 0 -19 -7 -20 -100
-20 -93 0 -100 -1 -100 -20 0 -19 -7 -20 -140 -20 -133 0 -140 -1 -140 -20 0
-18 -7 -20 -60 -20 -53 0 -60 -2 -60 -20 0 -19 -7 -20 -140 -20 -133 0 -140
-1 -140 -20 0 -18 -7 -20 -60 -20 -53 0 -60 -2 -60 -20 0 -19 -7 -20 -100 -20
-93 0 -100 -1 -100 -20 0 -18 -7 -20 -60 -20 -53 0 -60 -2 -60 -20 0 -19 -7
-20 -100 -20 -93 0 -100 -1 -100 -20 0 -18 -7 -20 -60 -20 -53 0 -60 -2 -60
-20 0 -18 -7 -20 -80 -20 -73 0 -80 -2 -80 -20 0 -17 -7 -20 -40 -20 -33 0
-40 -3 -40 -20 0 -19 -7 -20 -100 -20 -93 0 -100 -1 -100 -20 0 -18 -7 -20
-60 -20 -53 0 -60 -2 -60 -20 0 -18 -7 -20 -60 -20 -53 0 -60 -2 -60 -20 0
-18 -7 -20 -60 -20 -53 0 -60 -2 -60 -20 0 -18 -7 -20 -60 -20 -53 0 -60 -2
-60 -20 0 -18 -7 -20 -60 -20 -53 0 -60 -2 -60 -20 0 -18 -7 -20 -60 -20 -53
0 -60 -2 -60 -20 0 -17 -7 -20 -40 -20 -33 0 -40 -3 -40 -20 0 -18 -7 -20 -60
-20 -53 0 -60 -2 -60 -20 0 -17 -7 -20 -40 -20 -33 0 -40 -3 -40 -20 0 -18 -7
-20 -60 -20 -53 0 -60 -2 -60 -20 0 -17 -7 -20 -40 -20 -33 0 -40 -3 -40 -20
0 -18 -7 -20 -60 -20 -53 0 -60 -2 -60 -20 0 -17 -7 -20 -40 -20 -33 0 -40 -3
-40 -20 0 -18 -7 -20 -60 -20 -53 0 -60 -2 -60 -20 0 -15 -7 -20 -25 -20 -18
0 -25 -5 -25 -20 0 -18 -7 -20 -55 -20 -48 0 -55 -2 -55 -20 0 -17 -7 -20 -40
-20 -33 0 -40 -3 -40 -20 0 -18 -7 -20 -60 -20 -53 0 -60 -2 -60 -20 0 -13 -7
-20 -20 -20 -13 0 -20 -7 -20 -20 0 -17 -7 -20 -45 -20 -38 0 -45 -3 -45 -20
0 -16 -7 -20 -35 -20 -28 0 -35 -4 -35 -20 0 -17 -7 -20 -45 -20 -38 0 -45 -3
-45 -20 0 -16 -7 -20 -35 -20 -28 0 -35 -4 -35 -20 0 -17 -7 -20 -40 -20 -33
0 -40 -3 -40 -20 0 -17 -7 -20 -40 -20 -33 0 -40 -3 -40 -20 0 -17 -7 -20 -40
-20 -33 0 -40 -3 -40 -20 0 -17 -7 -20 -40 -20 -33 0 -40 -3 -40 -20 0 -17 -7
-20 -40 -20 -33 0 -40 -3 -40 -20 0 -15 -7 -20 -25 -20 -18 0 -25 -5 -25 -20
0 -18 -7 -20 -55 -20 -48 0 -55 -2 -55 -20 0 -13 -7 -20 -20 -20 -13 0 -20 -7
-20 -20 0 -17 -7 -20 -40 -20 -33 0 -40 -3 -40 -20 0 -15 -7 -20 -25 -20 -18
0 -25 -5 -25 -20 0 -17 -7 -20 -40 -20 -33 0 -40 -3 -40 -20 0 -13 -7 -20 -20
-20 -13 0 -20 -7 -20 -20 0 -18 -7 -20 -55 -20 -48 0 -55 -2 -55 -20 0 -13 -7
-20 -20 -20 -13 0 -20 -7 -20 -20 0 -17 -7 -20 -40 -20 -33 0 -40 -3 -40 -20
0 -13 -7 -20 -20 -20 -13 0 -20 -7 -20 -20 0 -17 -7 -20 -40 -20 -33 0 -40 -3
-40 -20 0 -17 -7 -20 -40 -20 -33 0 -40 -3 -40 -20 0 -13 -7 -20 -20 -20 -13
0 -20 -7 -20 -20 0 -17 -7 -20 -40 -20 -33 0 -40 -3 -40 -20 0 -13 -7 -20 -20
-20 -13 0 -20 -7 -20 -20 0 -15 -7 -20 -25 -20 -18 0 -25 -5 -25 -20 0 -16 -7
-20 -35 -20 -28 0 -35 -4 -35 -20 0 -13 -7 -20 -20 -20 -13 0 -20 -7 -20 -20
0 -17 -7 -20 -40 -20 -33 0 -40 -3 -40 -20 0 -13 -7 -20 -20 -20 -13 0 -20 -7
-20 -20 0 -17 -7 -20 -40 -20 -33 0 -40 -3 -40 -20 0 -13 -7 -20 -20 -20 -13
0 -20 -7 -20 -20 0 -15 -7 -20 -25 -20 -18 0 -25 -5 -25 -20 0 -16 -7 -20 -35
-20 -28 0 -35 -4 -35 -20 0 -13 -7 -20 -20 -20 -13 0 -20 -7 -20 -20 0 -13 -7
-20 -20 -20 -13 0 -20 -7 -20 -20 0 -17 -7 -20 -40 -20 -33 0 -40 -3 -40 -20
0 -13 -7 -20 -20 -20 -13 0 -20 -7 -20 -20 0 -17 -7 -20 -40 -20 -33 0 -40 -3
-40 -20 0 -13 -7 -20 -20 -20 -13 0 -20 -7 -20 -20 0 -17 -7 -20 -40 -20 -33
0 -40 -3 -40 -20 0 -13 -7 -20 -20 -20 -13 0 -20 -7 -20 -20 0 -13 -7 -20 -20
-20 -13 0 -20 -7 -20 -20 0 -13 -7 -20 -20 -20 -13 0 -20 -7 -20 -20 0 -13 -7
-20 -20 -20 -13 0 -20 -7 -20 -20 0 -13 -7 -20 -20 -20 -13 0 -20 -7 -20 -20
0 -13 -7 -20 -20 -20 -13 0 -20 -7 -20 -20 0 -13 -7 -20 -20 -20 -13 0 -20 -7
-20 -20 0 -15 -7 -20 -25 -20 -18 0 -25 -5 -25 -20 0 -13 -7 -20 -20 -20 -13
0 -20 -7 -20 -20 0 -16 -7 -20 -35 -20 -28 0 -35 -4 -35 -20 0 -13 -7 -20 -20
-20 -13 0 -20 -7 -20 -20 0 -13 -7 -20 -20 -20 -13 0 -20 -7 -20 -20 0 -15 -7
-20 -25 -20 -18 0 -25 -5 -25 -20 0 -16 -7 -20 -35 -20 -28 0 -35 -4 -35 -20
0 -13 -7 -20 -20 -20 -13 0 -20 -7 -20 -20 0 -13 -7 -20 -20 -20 -13 0 -20 -7
-20 -20 0 -15 -7 -20 -25 -20 -18 0 -25 -5 -25 -20 0 -16 -7 -20 -35 -20 -28
0 -35 -4 -35 -20 0 -13 -7 -20 -20 -20 -13 0 -20 -7 -20 -20 0 -13 -7 -20 -20
-20 -13 0 -20 -7 -20 -20 0 -13 -7 -20 -20 -20 -13 0 -20 -7 -20 -20 0 -15 -7
-20 -25 -20 -18 0 -25 -5 -25 -20 0 -11 -7 -20 -15 -20 -8 0 -15 -9 -15 -20 0
-17 -7 -20 -40 -20 -33 0 -40 -3 -40 -20 0 -13 -7 -20 -20 -20 -13 0 -20 -7
-20 -20 0 -13 -7 -20 -20 -20 -13 0 -20 -7 -20 -20 0 -13 -7 -20 -20 -20 -13
0 -20 -7 -20 -20 0 -13 -7 -20 -20 -20 -13 0 -20 -7 -20 -20 0 -13 -7 -20 -20
-20 -13 0 -20 -7 -20 -20 0 -13 -7 -20 -20 -20 -13 0 -20 -7 -20 -20 0 -13 -7
-20 -20 -20 -13 0 -20 -7 -20 -20 0 -13 -7 -20 -20 -20 -13 0 -20 -7 -20 -20
0 -13 -7 -20 -20 -20 -13 0 -20 -7 -20 -20 0 -13 -7 -20 -19 -20 -15 0 -21
-10 -26 -40 -6 -38 -9 -40 -41 -40 -33 0 -34 -1 -34 -40 0 -33 -3 -40 -20 -40
-13 0 -20 -7 -20 -20 0 -13 -7 -20 -20 -20 -13 0 -20 -7 -20 -20 0 -13 -7 -20
-20 -20 -13 0 -20 -7 -20 -20 0 -13 -7 -20 -19 -20 -15 0 -21 -10 -26 -40 -4
-25 -12 -40 -21 -40 -8 0 -14 -9 -14 -20 0 -13 -7 -20 -20 -20 -13 0 -20 -7
-20 -20 0 -13 -7 -20 -20 -20 -13 0 -20 -7 -20 -20 0 -13 -7 -20 -20 -20 -17
0 -20 -7 -20 -40 0 -33 -3 -40 -20 -40 -13 0 -20 -7 -20 -20 0 -13 -7 -20 -20
-20 -13 0 -20 -7 -20 -20 0 -13 -7 -20 -20 -20 -13 0 -20 -7 -20 -20 0 -13 -7
-20 -20 -20 -13 0 -20 -7 -20 -20 0 -13 -7 -20 -19 -20 -15 0 -21 -10 -26 -40
-4 -25 -12 -40 -21 -40 -8 0 -14 -9 -14 -20 0 -13 -7 -20 -20 -20 -13 0 -20
-7 -20 -20 0 -13 -7 -20 -20 -20 -13 0 -20 -7 -20 -20 0 -13 -7 -20 -20 -20
-13 0 -20 -7 -20 -20 0 -13 -7 -20 -20 -20 -13 0 -20 -7 -20 -20 0 -13 -7 -20
-20 -20 -13 0 -20 -7 -20 -20 0 -13 -7 -20 -20 -20 -13 0 -20 -7 -20 -20 0
-13 -7 -20 -20 -20 -13 0 -20 -7 -20 -20 0 -13 -7 -20 -20 -20 -17 0 -20 -7
-20 -40 0 -33 -3 -40 -20 -40 -13 0 -20 -7 -20 -20 0 -13 -7 -20 -20 -20 -17
0 -20 -7 -20 -40 0 -33 -3 -40 -20 -40 -13 0 -20 -7 -20 -20 0 -13 -7 -20 -20
-20 -17 0 -20 -7 -20 -40 0 -33 -3 -40 -20 -40 -13 0 -20 -7 -20 -20 0 -13 -7
-20 -20 -20 -13 0 -20 -7 -20 -20 0 -13 -7 -20 -20 -20 -13 0 -20 -7 -20 -20
0 -13 -7 -20 -20 -20 -17 0 -20 -7 -20 -40 0 -33 -3 -40 -20 -40 -13 0 -20 -7
-20 -20 0 -13 -7 -20 -19 -20 -15 0 -21 -10 -26 -40 -5 -30 -11 -40 -26 -40
-12 0 -19 -7 -19 -20 0 -11 -6 -20 -14 -20 -9 0 -17 -15 -21 -40 -4 -25 -12
-40 -21 -40 -8 0 -14 -9 -14 -20 0 -13 -7 -20 -19 -20 -15 0 -21 -10 -26 -40
-4 -25 -12 -40 -21 -40 -8 0 -14 -9 -14 -20 0 -13 -7 -20 -20 -20 -13 0 -20
-7 -20 -20 0 -13 -7 -20 -20 -20 -17 0 -20 -7 -20 -40 0 -33 -3 -40 -19 -40
-15 0 -21 -10 -26 -40 -4 -25 -12 -40 -21 -40 -8 0 -14 -9 -14 -20 0 -13 -7
-20 -20 -20 -17 0 -20 -7 -20 -40 0 -33 -3 -40 -20 -40 -13 0 -20 -7 -20 -20
0 -13 -7 -20 -20 -20 -17 0 -20 -7 -20 -40 0 -33 -3 -40 -20 -40 -13 0 -20 -7
-20 -20 0 -13 -7 -20 -20 -20 -17 0 -20 -7 -20 -40 0 -33 -3 -40 -20 -40 -13
0 -20 -7 -20 -20 0 -13 -7 -20 -20 -20 -17 0 -20 -7 -20 -40 0 -33 -3 -40 -19
-40 -15 0 -21 -10 -26 -40 -4 -25 -12 -40 -21 -40 -10 0 -14 -12 -14 -40 0
-33 -3 -40 -20 -40 -13 0 -20 -7 -20 -20 0 -13 -7 -20 -20 -20 -17 0 -20 -7
-20 -40 0 -33 -3 -40 -20 -40 -17 0 -20 -7 -20 -40 0 -33 -3 -40 -20 -40 -17
0 -20 -7 -20 -40 0 -33 -3 -40 -20 -40 -17 0 -20 -7 -20 -40 0 -33 -3 -40 -20
-40 -17 0 -20 -7 -20 -40 0 -33 -3 -40 -19 -40 -15 0 -21 -10 -26 -40 -4 -25
-12 -40 -21 -40 -10 0 -14 -12 -14 -40 0 -33 -3 -40 -19 -40 -15 0 -21 -10
-26 -40 -4 -25 -12 -40 -21 -40 -10 0 -14 -12 -14 -40 0 -33 -3 -40 -20 -40
-13 0 -20 -7 -20 -20 0 -13 -7 -20 -20 -20 -18 0 -20 -7 -20 -60 0 -53 -2 -60
-20 -60 -17 0 -20 -7 -20 -40 0 -33 -3 -40 -20 -40 -17 0 -20 -7 -20 -40 0
-33 -3 -40 -20 -40 -17 0 -20 -7 -20 -40 0 -33 -3 -40 -20 -40 -15 0 -20 -7
-20 -29 0 -49 -12 -91 -26 -91 -8 0 -14 -9 -14 -20 0 -13 -7 -20 -20 -20 -18
0 -20 -7 -20 -60 0 -53 -2 -60 -20 -60 -17 0 -20 -7 -20 -40 0 -33 -3 -40 -20
-40 -18 0 -20 -7 -20 -60 0 -53 -2 -60 -20 -60 -17 0 -20 -7 -20 -40 0 -33 -3
-40 -20 -40 -18 0 -20 -7 -20 -60 0 -53 -2 -60 -20 -60 -17 0 -20 -7 -20 -40
0 -33 -3 -40 -20 -40 -17 0 -20 -7 -20 -49 0 -68 -10 -111 -26 -111 -10 0 -14
-13 -14 -40 0 -33 -3 -40 -20 -40 -18 0 -20 -7 -20 -60 0 -53 -2 -60 -20 -60
-17 0 -20 -7 -20 -40 0 -33 -3 -40 -20 -40 -17 0 -20 -7 -20 -49 0 -68 -10
-111 -26 -111 -10 0 -14 -13 -14 -40 0 -33 -3 -40 -20 -40 -17 0 -20 -7 -20
-49 0 -68 -10 -111 -26 -111 -10 0 -14 -13 -14 -40 0 -33 -3 -40 -20 -40 -18
0 -20 -7 -20 -69 0 -87 -9 -131 -26 -131 -10 0 -14 -13 -14 -40 0 -33 -3 -40
-20 -40 -17 0 -20 -7 -20 -49 0 -68 -10 -111 -26 -111 -10 0 -14 -13 -14 -40
0 -33 -3 -40 -20 -40 -18 0 -20 -7 -20 -89 0 -106 -8 -151 -26 -151 -10 0 -14
-16 -14 -60 0 -53 -2 -60 -20 -60 -18 0 -20 -7 -20 -69 0 -87 -9 -131 -26
-131 -10 0 -14 -16 -14 -60 0 -53 -2 -60 -20 -60 -19 0 -20 -7 -20 -109 0
-126 -7 -171 -26 -171 -10 0 -14 -14 -14 -49 0 -68 -10 -111 -26 -111 -11 0
-14 -20 -14 -89 0 -106 -8 -151 -26 -151 -11 0 -14 -20 -14 -89 0 -106 -8
-151 -26 -151 -11 0 -14 -35 -14 -189 0 -204 -5 -251 -26 -251 -11 0 -14 -23
-14 -109 0 -126 -7 -171 -26 -171 -11 0 -14 -35 -14 -189 0 -204 -5 -251 -26
-251 -11 0 -14 -29 -14 -149 0 -165 -6 -211 -26 -211 -12 0 -14 -104 -14 -640
0 -532 2 -640 14 -640 16 0 26 -82 26 -221 0 -77 3 -99 14 -99 21 0 26 -48 26
-271 0 -202 1 -209 20 -209 19 0 20 -7 20 -140 0 -112 3 -140 14 -140 21 0 26
-47 26 -251 0 -182 1 -189 20 -189 18 0 20 -7 20 -80 0 -61 3 -80 14 -80 18 0
26 -45 26 -151 0 -69 3 -89 14 -89 16 0 26 -43 26 -111 0 -35 4 -49 14 -49 20
0 26 -46 26 -191 0 -122 1 -129 20 -129 18 0 20 -7 20 -60 0 -53 2 -60 20 -60
19 0 20 -7 20 -100 0 -93 1 -100 20 -100 18 0 20 -7 20 -60 0 -53 2 -60 20
-60 19 0 20 -7 20 -100 0 -78 3 -100 14 -100 14 0 26 -42 26 -91 0 -22 5 -29
20 -29 18 0 20 -7 20 -80 0 -73 2 -80 20 -80 18 0 20 -7 20 -60 0 -53 2 -60
20 -60 18 0 20 -7 20 -80 0 -73 2 -80 20 -80 17 0 20 -7 20 -40 0 -27 4 -40
14 -40 16 0 26 -43 26 -111 0 -42 3 -49 20 -49 17 0 20 -7 20 -40 0 -27 4 -40
14 -40 16 0 26 -43 26 -111 0 -42 3 -49 20 -49 17 0 20 -7 20 -40 0 -33 3 -40
20 -40 18 0 20 -7 20 -60 0 -44 4 -60 14 -60 14 0 26 -42 26 -91 0 -22 5 -29
20 -29 18 0 20 -7 20 -60 0 -53 2 -60 20 -60 17 0 20 -7 20 -40 0 -33 3 -40
20 -40 18 0 20 -7 20 -60 0 -53 2 -60 20 -60 17 0 20 -7 20 -40 0 -33 3 -40
20 -40 18 0 20 -7 20 -60 0 -53 2 -60 20 -60 17 0 20 -7 20 -40 0 -33 3 -40
20 -40 17 0 20 -7 20 -40 0 -28 4 -40 14 -40 9 0 17 -15 21 -40 5 -30 11 -40
26 -40 17 0 19 -8 19 -60 0 -53 2 -60 20 -60 17 0 20 -7 20 -40 0 -33 3 -40
20 -40 18 0 20 -7 20 -60 0 -53 2 -60 20 -60 13 0 20 -7 20 -20 0 -11 6 -20
14 -20 14 0 26 -42 26 -91 0 -22 5 -29 20 -29 13 0 20 -7 20 -20 0 -11 6 -20
14 -20 14 0 26 -42 26 -91 0 -22 5 -29 20 -29 13 0 20 -7 20 -20 0 -11 6 -20
14 -20 14 0 26 -42 26 -91 0 -22 5 -29 20 -29 13 0 20 -7 20 -20 0 -13 7 -20
20 -20 17 0 20 -7 20 -40 0 -28 4 -40 14 -40 9 0 17 -15 21 -40 5 -30 11 -40
26 -40 16 0 19 -7 19 -40 0 -33 3 -40 20 -40 13 0 20 -7 20 -20 0 -11 6 -20
14 -20 9 0 17 -15 21 -40 4 -23 12 -40 20 -40 8 0 16 -17 20 -40 5 -30 11 -40
26 -40 16 0 19 -7 19 -40 0 -33 3 -40 20 -40 13 0 20 -7 20 -20 0 -13 7 -20
20 -20 17 0 20 -7 20 -40 0 -33 3 -40 20 -40 17 0 20 -7 20 -40 0 -33 3 -40
20 -40 17 0 20 -7 20 -40 0 -33 3 -40 20 -40 13 0 20 -7 20 -20 0 -13 7 -20
20 -20 17 0 20 -7 20 -40 0 -33 3 -40 20 -40 13 0 20 -7 20 -20 0 -13 7 -20
20 -20 17 0 20 -7 20 -40 0 -33 3 -40 20 -40 13 0 20 -7 20 -20 0 -11 6 -20
14 -20 9 0 17 -15 21 -40 5 -30 11 -40 26 -40 12 0 19 -7 19 -20 0 -11 6 -20
14 -20 9 0 17 -15 21 -40 5 -30 11 -40 26 -40 12 0 19 -7 19 -20 0 -11 6 -20
14 -20 9 0 17 -15 21 -40 5 -30 11 -40 26 -40 12 0 19 -7 19 -20 0 -11 6 -20
14 -20 9 0 17 -15 21 -40 5 -30 11 -40 26 -40 12 0 19 -7 19 -20 0 -11 6 -20
14 -20 9 0 17 -15 21 -40 5 -30 11 -40 26 -40 12 0 19 -7 19 -20 0 -13 7 -20
20 -20 17 0 20 -7 20 -40 0 -33 3 -40 20 -40 13 0 20 -7 20 -20 0 -13 7 -20
20 -20 13 0 20 -7 20 -20 0 -11 6 -20 14 -20 9 0 17 -15 21 -40 5 -30 11 -40
26 -40 12 0 19 -7 19 -20 0 -13 7 -20 20 -20 13 0 20 -7 20 -20 0 -13 7 -20
20 -20 13 0 20 -7 20 -20 0 -11 6 -20 14 -20 9 0 17 -15 21 -40 5 -30 11 -40
26 -40 12 0 19 -7 19 -20 0 -13 7 -20 20 -20 17 0 20 -7 20 -40 0 -33 3 -40
20 -40 13 0 20 -7 20 -20 0 -13 7 -20 20 -20 13 0 20 -7 20 -20 0 -13 7 -20
20 -20 17 0 20 -7 20 -40 0 -33 3 -40 20 -40 13 0 20 -7 20 -20 0 -13 7 -20
20 -20 13 0 20 -7 20 -20 0 -13 7 -20 20 -20 13 0 20 -7 20 -20 0 -13 7 -20
20 -20 13 0 20 -7 20 -20 0 -11 7 -20 15 -20 8 0 15 -9 15 -20 0 -13 7 -20 20
-20 13 0 20 -7 20 -20 0 -13 7 -20 19 -20 15 0 21 -10 26 -40 5 -30 11 -40 26
-40 12 0 19 -7 19 -20 0 -13 7 -20 20 -20 13 0 20 -7 20 -20 0 -13 7 -20 20
-20 13 0 20 -7 20 -20 0 -13 7 -20 20 -20 13 0 20 -7 20 -20 0 -13 7 -20 20
-20 13 0 20 -7 20 -20 0 -13 7 -20 20 -20 13 0 20 -7 20 -20 0 -13 7 -20 20
-20 13 0 20 -7 20 -20 0 -13 7 -20 20 -20 13 0 20 -7 20 -20 0 -13 7 -20 20
-20 13 0 20 -7 20 -20 0 -13 7 -20 20 -20 13 0 20 -7 20 -20 0 -13 7 -20 20
-20 13 0 20 -7 20 -20 0 -13 7 -20 20 -20 13 0 20 -7 20 -20 0 -13 7 -20 20
-20 13 0 20 -7 20 -20 0 -11 7 -20 15 -20 8 0 15 -9 15 -20 0 -15 7 -20 25
-20 23 0 25 -4 25 -40 0 -39 1 -40 34 -40 32 0 35 -2 41 -40 6 -37 9 -40 40
-40 31 0 34 -3 40 -40 6 -37 9 -40 40 -40 31 0 34 -3 40 -40 6 -37 9 -40 40
-40 31 0 34 -3 40 -40 7 -39 8 -40 46 -40 39 0 39 0 39 -40 l0 -40 40 0 c33 0
40 -3 40 -20 0 -13 7 -20 20 -20 13 0 20 -7 20 -20 0 -13 7 -20 20 -20 13 0
20 -7 20 -20 0 -13 7 -20 20 -20 13 0 20 -7 20 -20 0 -13 7 -20 20 -20 13 0
20 -7 20 -20 0 -13 7 -20 20 -20 13 0 20 -7 20 -20 0 -13 7 -20 20 -20 13 0
20 -7 20 -20 0 -13 7 -20 20 -20 13 0 20 -7 20 -20 0 -13 7 -20 20 -20 13 0
20 -7 20 -20 0 -13 7 -20 20 -20 13 0 20 -7 20 -20 0 -13 7 -20 20 -20 13 0
20 -7 20 -20 0 -13 7 -20 20 -20 13 0 20 -7 20 -20 0 -16 7 -20 35 -20 28 0
35 -4 35 -20 0 -15 7 -20 25 -20 18 0 25 -5 25 -20 0 -13 7 -20 20 -20 13 0
20 -7 20 -20 0 -13 7 -20 20 -20 13 0 20 -7 20 -20 0 -13 7 -20 20 -20 13 0
20 -7 20 -20 0 -13 7 -20 20 -20 13 0 20 -7 20 -20 0 -16 7 -20 35 -20 28 0
35 -4 35 -20 0 -13 7 -20 20 -20 13 0 20 -7 20 -20 0 -15 7 -20 25 -20 18 0
25 -5 25 -20 0 -13 7 -20 20 -20 13 0 20 -7 20 -20 0 -17 7 -20 40 -20 33 0
40 -3 40 -20 0 -13 7 -20 20 -20 13 0 20 -7 20 -20 0 -17 7 -20 40 -20 33 0
40 -3 40 -20 0 -13 7 -20 20 -20 13 0 20 -7 20 -20 0 -13 7 -20 20 -20 13 0
20 -7 20 -20 0 -16 7 -20 35 -20 28 0 35 -4 35 -20 0 -15 7 -20 25 -20 18 0
25 -5 25 -20 0 -13 7 -20 20 -20 13 0 20 -7 20 -20 0 -17 7 -20 40 -20 33 0
40 -3 40 -20 0 -13 7 -20 20 -20 13 0 20 -7 20 -20 0 -13 7 -20 20 -20 13 0
20 -7 20 -20 0 -17 7 -20 40 -20 33 0 40 -3 40 -20 0 -16 7 -20 35 -20 28 0
35 -4 35 -20 0 -13 7 -20 20 -20 13 0 20 -7 20 -20 0 -15 7 -20 25 -20 18 0
25 -5 25 -20 0 -13 7 -20 20 -20 13 0 20 -7 20 -20 0 -17 7 -20 40 -20 33 0
40 -3 40 -20 0 -13 7 -20 20 -20 13 0 20 -7 20 -20 0 -17 7 -20 40 -20 33 0
40 -3 40 -20 0 -13 7 -20 20 -20 13 0 20 -7 20 -20 0 -17 7 -20 40 -20 33 0
40 -3 40 -20 0 -13 7 -20 20 -20 13 0 20 -7 20 -20 0 -17 7 -20 40 -20 33 0
40 -3 40 -20 0 -17 7 -20 40 -20 33 0 40 -3 40 -20 0 -17 7 -20 40 -20 33 0
40 -3 40 -20 0 -13 7 -20 20 -20 13 0 20 -7 20 -20 0 -17 7 -20 40 -20 33 0
40 -3 40 -20 0 -17 7 -20 40 -20 33 0 40 -3 40 -20 0 -17 7 -20 40 -20 33 0
40 -3 40 -20 0 -13 7 -20 20 -20 13 0 20 -7 20 -20 0 -17 7 -20 40 -20 33 0
40 -3 40 -20 0 -16 7 -20 35 -20 28 0 35 -4 35 -20 0 -17 7 -20 45 -20 38 0
45 -3 45 -20 0 -13 7 -20 20 -20 13 0 20 -7 20 -20 0 -18 7 -20 55 -20 48 0
55 -2 55 -20 0 -15 7 -20 25 -20 18 0 25 -5 25 -20 0 -17 7 -20 40 -20 33 0
40 -3 40 -20 0 -16 7 -20 35 -20 28 0 35 -4 35 -20 0 -17 7 -20 45 -20 38 0
45 -3 45 -20 0 -16 7 -20 35 -20 28 0 35 -4 35 -20 0 -17 7 -20 45 -20 38 0
45 -3 45 -20 0 -17 7 -20 40 -20 33 0 40 -3 40 -20 0 -17 7 -20 40 -20 33 0
40 -3 40 -20 0 -17 7 -20 40 -20 33 0 40 -3 40 -20 0 -18 7 -20 60 -20 53 0
60 -2 60 -20 0 -16 7 -20 35 -20 28 0 35 -4 35 -20 0 -17 7 -20 45 -20 38 0
45 -3 45 -20 0 -17 7 -20 40 -20 33 0 40 -3 40 -20 0 -18 7 -20 60 -20 53 0
60 -2 60 -20 0 -17 7 -20 40 -20 33 0 40 -3 40 -20 0 -18 7 -20 60 -20 53 0
60 -2 60 -20 0 -17 7 -20 40 -20 33 0 40 -3 40 -20 0 -18 7 -20 60 -20 53 0
60 -2 60 -20 0 -16 7 -20 35 -20 28 0 35 -4 35 -20 0 -18 7 -20 65 -20 58 0
65 -2 65 -20 0 -17 7 -20 40 -20 33 0 40 -3 40 -20 0 -18 7 -20 80 -20 73 0
80 -2 80 -20 0 -17 7 -20 40 -20 33 0 40 -3 40 -20 0 -18 7 -20 80 -20 73 0
80 -2 80 -20 0 -17 7 -20 40 -20 33 0 40 -3 40 -20 0 -18 7 -20 80 -20 73 0
80 -2 80 -20 0 -17 7 -20 40 -20 33 0 40 -3 40 -20 0 -19 7 -20 100 -20 93 0
100 -1 100 -20 0 -18 7 -20 60 -20 53 0 60 -2 60 -20 0 -18 7 -20 80 -20 73 0
80 -2 80 -20 0 -18 7 -20 60 -20 53 0 60 -2 60 -20 0 -19 7 -20 100 -20 93 0
100 -1 100 -20 0 -18 7 -20 80 -20 73 0 80 -2 80 -20 0 -19 7 -20 100 -20 93
0 100 -1 100 -20 0 -18 7 -20 80 -20 73 0 80 -2 80 -20 0 -19 7 -20 140 -20
133 0 140 -1 140 -20 0 -18 7 -20 80 -20 73 0 80 -2 80 -20 0 -19 7 -20 160
-20 153 0 160 -1 160 -20 0 -19 7 -20 120 -20 113 0 120 -1 120 -20 0 -20 7
-20 300 -20 293 0 300 0 300 -20 0 -19 7 -20 120 -20 113 0 120 -1 120 -20 0
-20 7 -20 300 -20 293 0 300 0 300 -20 0 -20 7 -20 300 -20 293 0 300 0 300
20 0 20 7 20 380 20 373 0 380 0 380 20 0 19 7 20 115 20 108 0 115 1 115 20
0 20 7 20 300 20 293 0 300 0 300 20 0 19 7 20 145 20 138 0 145 1 145 20 0
19 7 20 160 20 153 0 160 1 160 20 0 18 7 20 80 20 73 0 80 2 80 20 0 19 7 20
160 20 153 0 160 1 160 20 0 18 7 20 60 20 53 0 60 2 60 20 0 19 7 20 100 20
93 0 100 1 100 20 0 18 7 20 60 20 53 0 60 2 60 20 0 19 7 20 120 20 113 0
120 1 120 20 0 18 7 20 55 20 48 0 55 2 55 20 0 18 7 20 85 20 78 0 85 2 85
20 0 17 7 20 40 20 33 0 40 3 40 20 0 19 7 20 100 20 93 0 100 1 100 20 0 17
7 20 40 20 33 0 40 3 40 20 0 18 7 20 80 20 73 0 80 2 80 20 0 17 7 20 40 20
33 0 40 3 40 20 0 18 7 20 80 20 73 0 80 2 80 20 0 18 7 20 55 20 48 0 55 2
55 20 0 18 7 20 65 20 58 0 65 2 65 20 0 17 7 20 40 20 33 0 40 3 40 20 0 18
7 20 80 20 73 0 80 2 80 20 0 16 7 20 35 20 28 0 35 4 35 20 0 18 7 20 60 20
53 0 60 2 60 20 0 15 7 20 25 20 18 0 25 5 25 20 0 18 7 20 80 20 73 0 80 2
80 20 0 16 7 20 35 20 28 0 35 4 35 20 0 17 7 20 45 20 38 0 45 3 45 20 0 17
7 20 40 20 33 0 40 3 40 20 0 18 7 20 60 20 53 0 60 2 60 20 0 17 7 20 40 20
33 0 40 3 40 20 0 17 7 20 40 20 33 0 40 3 40 20 0 17 7 20 40 20 33 0 40 3
40 20 0 18 7 20 55 20 48 0 55 2 55 20 0 15 7 20 25 20 18 0 25 5 25 20 0 17
7 20 40 20 33 0 40 3 40 20 0 17 7 20 40 20 33 0 40 3 40 20 0 18 7 20 55 20
48 0 55 2 55 20 0 15 7 20 25 20 18 0 25 5 25 20 0 17 7 20 40 20 33 0 40 3
40 20 0 16 7 20 35 20 28 0 35 4 35 20 0 17 7 20 45 20 38 0 45 3 45 20 0 13
7 20 20 20 13 0 20 7 20 20 0 17 7 20 40 20 33 0 40 3 40 20 0 17 7 20 40 20
33 0 40 3 40 20 0 17 7 20 40 20 33 0 40 3 40 20 0 16 7 20 35 20 28 0 35 4
35 20 0 17 7 20 45 20 38 0 45 3 45 20 0 13 7 20 20 20 13 0 20 7 20 20 0 17
7 20 40 20 33 0 40 3 40 20 0 17 7 20 40 20 33 0 40 3 40 20 0 16 7 20 35 20
28 0 35 4 35 20 0 15 7 20 25 20 18 0 25 5 25 20 0 13 7 20 20 20 13 0 20 7
20 20 0 17 7 20 40 20 33 0 40 3 40 20 0 17 7 20 40 20 33 0 40 3 40 20 0 13
7 20 20 20 13 0 20 7 20 20 0 17 7 20 40 20 33 0 40 3 40 20 0 13 7 20 20 20
13 0 20 7 20 20 0 17 7 20 40 20 33 0 40 3 40 20 0 13 7 20 20 20 13 0 20 7
20 20 0 16 7 20 35 20 28 0 35 4 35 20 0 15 7 20 25 20 18 0 25 5 25 20 0 13
7 20 20 20 13 0 20 7 20 20 0 16 7 20 35 20 28 0 35 4 35 20 0 15 7 20 25 20
18 0 25 5 25 20 0 17 7 20 40 20 33 0 40 3 40 20 0 13 7 20 20 20 13 0 20 7
20 20 0 16 7 20 35 20 28 0 35 4 35 20 0 15 7 20 25 20 18 0 25 5 25 20 0 13
7 20 20 20 13 0 20 7 20 20 0 16 7 20 35 20 28 0 35 4 35 20 0 13 7 20 20 20
13 0 20 7 20 20 0 15 7 20 25 20 18 0 25 5 25 20 0 13 7 20 20 20 13 0 20 7
20 20 0 16 7 20 34 20 32 0 35 2 41 40 7 39 8 40 46 40 32 0 39 3 39 20 0 13
7 20 20 20 13 0 20 7 20 20 0 17 7 20 40 20 33 0 40 3 40 20 0 13 7 20 20 20
13 0 20 7 20 20 0 17 7 20 40 20 33 0 40 3 40 20 0 13 7 20 20 20 13 0 20 7
20 20 0 13 7 20 20 20 13 0 20 7 20 20 0 13 7 20 20 20 13 0 20 7 20 20 0 13
7 20 20 20 13 0 20 7 20 20 0 13 7 20 20 20 13 0 20 7 20 20 0 13 7 20 20 20
13 0 20 7 20 20 0 13 7 20 20 20 13 0 20 7 20 20 0 13 7 20 20 20 13 0 20 7
20 20 0 16 7 20 35 20 28 0 35 4 35 20 0 13 7 20 20 20 13 0 20 7 20 20 0 13
7 20 20 20 13 0 20 7 20 20 0 13 7 20 20 20 13 0 20 7 20 20 0 13 7 20 20 20
13 0 20 7 20 20 0 13 7 20 20 20 13 0 20 7 20 20 0 13 7 20 20 20 13 0 20 7
20 20 0 13 7 20 20 20 13 0 20 7 20 20 0 13 7 20 20 20 13 0 20 7 20 20 0 13
7 20 20 20 13 0 20 7 20 20 0 13 7 20 20 20 13 0 20 7 20 20 0 13 7 20 20 20
13 0 20 7 20 20 0 13 7 20 20 20 13 0 20 7 20 20 0 13 7 20 20 20 13 0 20 7
20 20 0 13 7 20 20 20 13 0 20 7 20 20 0 13 7 20 20 20 13 0 20 7 20 20 0 13
7 20 20 20 13 0 20 7 20 20 0 13 7 20 20 20 13 0 20 7 20 20 0 13 7 20 20 20
13 0 20 7 20 20 0 13 7 20 20 20 13 0 20 7 20 20 0 13 7 20 20 20 13 0 20 7
20 20 0 13 7 20 20 20 13 0 20 7 20 20 0 13 7 20 20 20 13 0 20 7 20 20 0 13
7 20 20 20 13 0 20 7 20 20 0 13 7 20 20 20 13 0 20 7 20 20 0 13 7 20 19 20
15 0 21 10 26 40 5 30 11 40 26 40 12 0 19 7 19 20 0 13 7 20 20 20 13 0 20 7
20 20 0 13 7 20 20 20 13 0 20 7 20 20 0 13 7 20 20 20 13 0 20 7 20 20 0 13
7 20 20 20 13 0 20 7 20 20 0 13 7 20 20 20 13 0 20 7 20 20 0 13 7 20 20 20
13 0 20 7 20 20 0 13 7 20 20 20 13 0 20 7 20 20 0 13 7 20 20 20 13 0 20 7
20 20 0 13 7 20 20 20 13 0 20 7 20 20 0 13 7 20 20 20 17 0 20 7 20 40 0 33
3 40 20 40 13 0 20 7 20 20 0 13 7 20 20 20 13 0 20 7 20 20 0 11 6 20 14 20
9 0 17 15 21 40 5 30 11 40 26 40 12 0 19 7 19 20 0 13 7 20 20 20 13 0 20 7
20 20 0 13 7 20 20 20 17 0 20 7 20 40 0 33 3 40 20 40 13 0 20 7 20 20 0 13
7 20 20 20 13 0 20 7 20 20 0 13 7 20 20 20 13 0 20 7 20 20 0 11 6 20 14 20
9 0 17 15 21 40 5 30 11 40 26 40 12 0 19 7 19 20 0 13 7 20 20 20 13 0 20 7
20 20 0 13 7 20 20 20 13 0 20 7 20 20 0 13 7 20 20 20 17 0 20 7 20 40 0 33
3 40 20 40 13 0 20 7 20 20 0 13 7 20 20 20 17 0 20 7 20 40 0 33 3 40 20 40
13 0 20 7 20 20 0 13 7 20 20 20 17 0 20 7 20 40 0 33 3 40 20 40 13 0 20 7
20 20 0 13 7 20 20 20 17 0 20 7 20 40 0 33 3 40 20 40 13 0 20 7 20 20 0 13
7 20 20 20 17 0 20 7 20 40 0 33 3 40 20 40 13 0 20 7 20 20 0 13 7 20 20 20
17 0 20 7 20 40 0 33 3 40 20 40 13 0 20 7 20 20 0 13 7 20 20 20 17 0 20 7
20 40 0 33 3 40 20 40 13 0 20 7 20 20 0 13 7 20 20 20 17 0 20 7 20 40 0 33
3 40 20 40 13 0 20 7 20 20 0 13 7 20 20 20 17 0 20 7 20 40 0 33 3 40 20 40
13 0 20 7 20 20 0 11 6 20 14 20 14 0 26 42 26 91 0 22 5 29 20 29 13 0 20 7
20 20 0 13 7 20 20 20 17 0 20 7 20 40 0 33 3 40 20 40 13 0 20 7 20 20 0 11
6 20 14 20 14 0 26 42 26 91 0 22 5 29 20 29 13 0 20 7 20 20 0 13 7 20 20 20
17 0 20 7 20 40 0 33 3 40 20 40 17 0 20 7 20 40 0 33 3 40 20 40 17 0 20 7
20 40 0 33 3 40 20 40 13 0 20 7 20 20 0 11 6 20 14 20 14 0 26 42 26 91 0 22
5 29 20 29 13 0 20 7 20 20 0 13 7 20 20 20 18 0 20 7 20 60 0 53 2 60 20 60
13 0 20 7 20 20 0 11 6 20 14 20 14 0 26 42 26 91 0 22 5 29 20 29 13 0 20 7
20 20 0 13 7 20 20 20 18 0 20 7 20 60 0 53 2 60 20 60 17 0 20 7 20 40 0 33
3 40 20 40 17 0 20 7 20 40 0 28 4 40 14 40 9 0 17 15 21 40 5 30 11 40 26 40
17 0 19 8 19 60 0 53 2 60 20 60 17 0 20 7 20 40 0 33 3 40 20 40 17 0 20 7
20 40 0 28 4 40 14 40 9 0 17 15 21 40 5 30 11 40 26 40 17 0 19 8 19 60 0 45
4 60 14 60 9 0 17 15 21 40 4 22 12 40 20 40 13 0 25 43 25 91 0 18 5 29 14
29 9 0 17 15 21 40 4 22 12 40 20 40 15 0 25 44 25 111 0 42 3 49 20 49 17 0
20 7 20 40 0 33 3 40 20 40 18 0 20 7 20 60 0 53 2 60 20 60 18 0 20 7 20 60
0 53 2 60 20 60 18 0 20 7 20 80 0 73 2 80 20 80 17 0 20 7 20 40 0 33 3 40
20 40 18 0 20 7 20 80 0 73 2 80 20 80 17 0 20 7 20 40 0 27 4 40 14 40 17 0
26 44 26 131 0 62 2 69 20 69 17 0 20 7 20 40 0 27 4 40 14 40 16 0 26 43 26
111 0 35 4 49 14 49 14 0 26 42 26 91 0 18 5 29 14 29 18 0 26 45 26 151 0 69
3 89 14 89 14 0 26 42 26 91 0 22 5 29 20 29 19 0 20 7 20 100 0 93 1 100 20
100 18 0 20 7 20 80 0 61 3 80 14 80 19 0 26 45 26 171 0 86 3 109 14 109 16
0 26 43 26 111 0 42 3 49 20 49 19 0 20 7 20 140 0 133 1 140 20 140 19 0 20
7 20 120 0 94 3 120 14 120 18 0 26 85 26 281 0 127 3 159 14 159 17 0 26 83
26 241 0 94 3 119 14 119 23 0 26 49 26 391 0 270 2 329 14 329 21 0 26 89 26
430 0 321 -3 370 -26 370 -12 0 -14 53 -14 309 0 322 -3 371 -26 371 -11 0
-14 20 -14 89 0 106 -8 151 -26 151 -11 0 -14 40 -14 219 0 254 -7 341 -26
341 -11 0 -14 26 -14 120 0 113 -1 120 -20 120 -19 0 -20 7 -20 109 0 126 -7
171 -26 171 -11 0 -14 19 -14 80 0 73 -2 80 -20 80 -19 0 -20 7 -20 99 0 139
-10 221 -26 221 -10 0 -14 16 -14 60 0 53 -2 60 -20 60 -18 0 -20 7 -20 69 0
87 -9 131 -26 131 -10 0 -14 16 -14 60 0 53 -2 60 -20 60 -18 0 -20 7 -20 89
0 106 -8 151 -26 151 -9 0 -14 11 -14 29 0 49 -12 91 -26 91 -10 0 -14 16 -14
60 0 53 -2 60 -20 60 -18 0 -20 7 -20 60 0 53 -2 60 -20 60 -19 0 -20 7 -20
100 0 93 -1 100 -20 100 -15 0 -20 7 -20 29 0 49 -12 91 -26 91 -10 0 -14 16
-14 60 0 53 -2 60 -20 60 -17 0 -20 7 -20 40 0 33 -3 40 -20 40 -18 0 -20 7
-20 69 0 87 -9 131 -26 131 -10 0 -14 13 -14 40 0 33 -3 40 -20 40 -18 0 -20
7 -20 60 0 53 -2 60 -20 60 -17 0 -20 7 -20 40 0 33 -3 40 -20 40 -17 0 -20 7
-20 49 0 68 -10 111 -26 111 -10 0 -14 13 -14 40 0 33 -3 40 -20 40 -15 0 -20
7 -20 29 0 48 -12 91 -25 91 -8 0 -16 18 -20 40 -4 25 -12 40 -21 40 -10 0
-14 15 -14 60 0 53 -2 60 -20 60 -17 0 -20 7 -20 40 0 33 -3 40 -20 40 -17 0
-20 7 -20 40 0 33 -3 40 -20 40 -17 0 -20 7 -20 40 0 33 -3 40 -20 40 -18 0
-20 7 -20 60 0 53 -2 60 -20 60 -17 0 -20 7 -20 40 0 33 -3 40 -20 40 -15 0
-20 7 -20 29 0 49 -12 91 -26 91 -8 0 -14 9 -14 20 0 13 -7 20 -20 20 -18 0
-20 7 -20 60 0 52 -2 60 -19 60 -15 0 -21 10 -26 40 -4 25 -12 40 -21 40 -10
0 -14 12 -14 40 0 33 -3 40 -20 40 -13 0 -20 7 -20 20 0 13 -7 20 -20 20 -18
0 -20 7 -20 60 0 52 -2 60 -19 60 -15 0 -21 10 -26 40 -4 23 -12 40 -20 40 -8
0 -16 17 -20 40 -4 25 -12 40 -21 40 -8 0 -14 9 -14 20 0 13 -7 20 -20 20 -17
0 -20 7 -20 40 0 33 -3 40 -20 40 -17 0 -20 7 -20 40 0 33 -3 40 -20 40 -17 0
-20 7 -20 40 0 33 -3 40 -20 40 -13 0 -20 7 -20 20 0 13 -7 20 -20 20 -17 0
-20 7 -20 40 0 33 -3 40 -20 40 -17 0 -20 7 -20 40 0 33 -3 40 -20 40 -17 0
-20 7 -20 40 0 33 -3 40 -20 40 -13 0 -20 7 -20 20 0 13 -7 20 -20 20 -17 0
-20 7 -20 40 0 33 -3 40 -20 40 -13 0 -20 7 -20 20 0 13 -7 20 -20 20 -17 0
-20 7 -20 40 0 33 -3 40 -20 40 -17 0 -20 7 -20 40 0 33 -3 40 -20 40 -17 0
-20 7 -20 40 0 33 -3 40 -20 40 -13 0 -20 7 -20 20 0 13 -7 20 -20 20 -17 0
-20 7 -20 40 0 33 -3 40 -20 40 -13 0 -20 7 -20 20 0 13 -7 20 -20 20 -17 0
-20 7 -20 40 0 33 -3 40 -20 40 -13 0 -20 7 -20 20 0 13 -7 20 -20 20 -17 0
-20 7 -20 40 0 33 -3 40 -20 40 -13 0 -20 7 -20 20 0 13 -7 20 -20 20 -17 0
-20 7 -20 40 0 33 -3 40 -20 40 -13 0 -20 7 -20 20 0 13 -7 20 -20 20 -17 0
-20 7 -20 40 0 33 -3 40 -20 40 -13 0 -20 7 -20 20 0 13 -7 20 -19 20 -15 0
-21 10 -26 40 -4 25 -12 40 -21 40 -8 0 -14 9 -14 20 0 13 -7 20 -20 20 -13 0
-20 7 -20 20 0 13 -7 20 -20 20 -13 0 -20 7 -20 20 0 13 -7 20 -20 20 -17 0
-20 7 -20 40 0 33 -3 40 -20 40 -13 0 -20 7 -20 20 0 13 -7 20 -19 20 -15 0
-21 10 -26 40 -5 30 -11 40 -26 40 -12 0 -19 7 -19 20 0 11 -7 20 -15 20 -8 0
-15 9 -15 20 0 13 -7 20 -20 20 -13 0 -20 7 -20 20 0 13 -7 20 -20 20 -17 0
-20 7 -20 40 0 33 -3 40 -20 40 -13 0 -20 7 -20 20 0 13 -7 20 -20 20 -17 0
-20 7 -20 40 0 33 -3 40 -20 40 -13 0 -20 7 -20 20 0 13 -7 20 -20 20 -13 0
-20 7 -20 20 0 13 -7 20 -20 20 -13 0 -20 7 -20 20 0 13 -7 20 -20 20 -13 0
-20 7 -20 20 0 13 -7 20 -20 20 -13 0 -20 7 -20 20 0 13 -7 20 -20 20 -13 0
-20 7 -20 20 0 13 -7 20 -20 20 -13 0 -20 7 -20 20 0 13 -7 20 -20 20 -13 0
-20 7 -20 20 0 13 -7 20 -19 20 -15 0 -21 10 -26 40 -4 25 -12 40 -21 40 -8 0
-14 9 -14 20 0 13 -7 20 -20 20 -13 0 -20 7 -20 20 0 13 -7 20 -20 20 -13 0
-20 7 -20 20 0 13 -7 20 -20 20 -13 0 -20 7 -20 20 0 13 -7 20 -20 20 -13 0
-20 7 -20 20 0 13 -7 20 -20 20 -13 0 -20 7 -20 20 0 13 -7 20 -20 20 -13 0
-20 7 -20 20 0 13 -7 20 -20 20 -13 0 -20 7 -20 20 0 13 -7 20 -20 20 -17 0
-20 7 -20 40 0 36 -2 40 -25 40 -18 0 -25 5 -25 20 0 11 -7 20 -15 20 -8 0
-15 9 -15 20 0 13 -7 20 -20 20 -13 0 -20 7 -20 20 0 13 -7 20 -20 20 -13 0
-20 7 -20 20 0 13 -7 20 -20 20 -13 0 -20 7 -20 20 0 13 -7 20 -20 20 -13 0
-20 7 -20 20 0 13 -7 20 -20 20 -13 0 -20 7 -20 20 0 13 -7 20 -20 20 -13 0
-20 7 -20 20 0 13 -7 20 -20 20 -13 0 -20 7 -20 20 0 13 -7 20 -20 20 -13 0
-20 7 -20 20 0 13 -7 20 -20 20 -13 0 -20 7 -20 20 0 13 -7 20 -20 20 -13 0
-20 7 -20 20 0 13 -7 20 -20 20 -13 0 -20 7 -20 20 0 13 -7 20 -20 20 -13 0
-20 7 -20 20 0 17 -7 20 -39 20 -38 0 -39 1 -46 40 -6 38 -9 40 -41 40 -27 0
-34 4 -34 20 0 13 -7 20 -20 20 -13 0 -20 7 -20 20 0 13 -7 20 -20 20 -13 0
-20 7 -20 20 0 13 -7 20 -20 20 -13 0 -20 7 -20 20 0 13 -7 20 -20 20 -13 0
-20 7 -20 20 0 13 -7 20 -20 20 -13 0 -20 7 -20 20 0 13 -7 20 -20 20 -13 0
-20 7 -20 20 0 13 -7 20 -20 20 -13 0 -20 7 -20 20 0 13 -7 20 -20 20 -13 0
-20 7 -20 20 0 13 -7 20 -20 20 -13 0 -20 7 -20 20 0 15 -7 20 -25 20 -18 0
-25 5 -25 20 0 13 -7 20 -20 20 -13 0 -20 7 -20 20 0 16 -7 20 -35 20 -28 0
-35 4 -35 20 0 13 -7 20 -20 20 -13 0 -20 7 -20 20 0 13 -7 20 -20 20 -13 0
-20 7 -20 20 0 13 -7 20 -20 20 -13 0 -20 7 -20 20 0 13 -7 20 -20 20 -13 0
-20 7 -20 20 0 13 -7 20 -20 20 -13 0 -20 7 -20 20 0 15 -7 20 -25 20 -18 0
-25 5 -25 20 0 16 -7 20 -35 20 -28 0 -35 4 -35 20 0 13 -7 20 -20 20 -13 0
-20 7 -20 20 0 13 -7 20 -20 20 -13 0 -20 7 -20 20 0 17 -7 20 -40 20 -33 0
-40 3 -40 20 0 13 -7 20 -20 20 -13 0 -20 7 -20 20 0 17 -7 20 -40 20 -33 0
-40 3 -40 20 0 13 -7 20 -20 20 -13 0 -20 7 -20 20 0 13 -7 20 -20 20 -13 0
-20 7 -20 20 0 15 -7 20 -25 20 -18 0 -25 5 -25 20 0 16 -7 20 -35 20 -28 0
-35 4 -35 20 0 13 -7 20 -20 20 -13 0 -20 7 -20 20 0 17 -7 20 -40 20 -33 0
-40 3 -40 20 0 13 -7 20 -20 20 -13 0 -20 7 -20 20 0 13 -7 20 -20 20 -13 0
-20 7 -20 20 0 17 -7 20 -40 20 -33 0 -40 3 -40 20 0 15 -7 20 -25 20 -18 0
-25 5 -25 20 0 13 -7 20 -20 20 -13 0 -20 7 -20 20 0 16 -7 20 -35 20 -28 0
-35 4 -35 20 0 15 -7 20 -25 20 -18 0 -25 5 -25 20 0 16 -7 20 -35 20 -28 0
-35 4 -35 20 0 13 -7 20 -20 20 -13 0 -20 7 -20 20 0 17 -7 20 -40 20 -33 0
-40 3 -40 20 0 17 -7 20 -40 20 -33 0 -40 3 -40 20 0 15 -7 20 -25 20 -18 0
-25 5 -25 20 0 16 -7 20 -35 20 -28 0 -35 4 -35 20 0 17 -7 20 -40 20 -33 0
-40 3 -40 20 0 13 -7 20 -20 20 -13 0 -20 7 -20 20 0 17 -7 20 -40 20 -33 0
-40 3 -40 20 0 13 -7 20 -20 20 -13 0 -20 7 -20 20 0 17 -7 20 -40 20 -33 0
-40 3 -40 20 0 17 -7 20 -40 20 -33 0 -40 3 -40 20 0 17 -7 20 -40 20 -33 0
-40 3 -40 20 0 13 -7 20 -20 20 -13 0 -20 7 -20 20 0 17 -7 20 -40 20 -33 0
-40 3 -40 20 0 17 -7 20 -40 20 -33 0 -40 3 -40 20 0 17 -7 20 -40 20 -33 0
-40 3 -40 20 0 13 -7 20 -20 20 -13 0 -20 7 -20 20 0 17 -7 20 -45 20 -38 0
-45 3 -45 20 0 16 -7 20 -35 20 -28 0 -35 4 -35 20 0 17 -7 20 -40 20 -33 0
-40 3 -40 20 0 17 -7 20 -40 20 -33 0 -40 3 -40 20 0 17 -7 20 -40 20 -33 0
-40 3 -40 20 0 17 -7 20 -40 20 -33 0 -40 3 -40 20 0 17 -7 20 -40 20 -33 0
-40 3 -40 20 0 17 -7 20 -40 20 -33 0 -40 3 -40 20 0 17 -7 20 -45 20 -38 0
-45 3 -45 20 0 16 -7 20 -35 20 -28 0 -35 4 -35 20 0 18 -7 20 -60 20 -53 0
-60 2 -60 20 0 17 -7 20 -40 20 -33 0 -40 3 -40 20 0 18 -7 20 -60 20 -53 0
-60 2 -60 20 0 17 -7 20 -40 20 -33 0 -40 3 -40 20 0 18 -7 20 -60 20 -53 0
-60 2 -60 20 0 17 -7 20 -40 20 -33 0 -40 3 -40 20 0 18 -7 20 -60 20 -53 0
-60 2 -60 20 0 17 -7 20 -40 20 -33 0 -40 3 -40 20 0 18 -7 20 -60 20 -53 0
-60 2 -60 20 0 17 -7 20 -40 20 -33 0 -40 3 -40 20 0 18 -7 20 -80 20 -73 0
-80 2 -80 20 0 17 -7 20 -40 20 -33 0 -40 3 -40 20 0 18 -7 20 -80 20 -73 0
-80 2 -80 20 0 17 -7 20 -40 20 -33 0 -40 3 -40 20 0 18 -7 20 -65 20 -58 0
-65 2 -65 20 0 18 -7 20 -55 20 -48 0 -55 2 -55 20 0 18 -7 20 -80 20 -73 0
-80 2 -80 20 0 17 -7 20 -45 20 -38 0 -45 3 -45 20 0 18 -7 20 -80 20 -73 0
-80 2 -80 20 0 18 -7 20 -55 20 -48 0 -55 2 -55 20 0 19 -7 20 -120 20 -113 0
-120 1 -120 20 0 18 -7 20 -60 20 -53 0 -60 2 -60 20 0 18 -7 20 -80 20 -73 0
-80 2 -80 20 0 18 -7 20 -80 20 -73 0 -80 2 -80 20 0 19 -7 20 -140 20 -133 0
-140 1 -140 20 0 18 -7 20 -80 20 -73 0 -80 2 -80 20 0 19 -7 20 -120 20 -113
0 -120 1 -120 20 0 19 -7 20 -100 20 -93 0 -100 1 -100 20 0 19 -7 20 -240 20
-233 0 -240 1 -240 20 0 18 -7 20 -80 20 -73 0 -80 2 -80 20 0 19 -7 20 -240
20 -233 0 -240 1 -240 20 0 19 -7 20 -185 20 -178 0 -185 1 -185 20 0 20 -7
20 -715 20 -708 0 -715 0 -715 -20z m1160 -6760 c0 -19 7 -20 220 -20 213 0
220 -1 220 -20 0 -19 7 -20 100 -20 93 0 100 -1 100 -20 0 -19 7 -20 180 -20
173 0 180 -1 180 -20 0 -18 7 -20 80 -20 73 0 80 -2 80 -20 0 -19 7 -20 120
-20 113 0 120 -1 120 -20 0 -17 7 -20 40 -20 33 0 40 -3 40 -20 0 -19 7 -20
100 -20 93 0 100 -1 100 -20 0 -17 7 -20 40 -20 33 0 40 -3 40 -20 0 -18 7
-20 80 -20 73 0 80 -2 80 -20 0 -18 7 -20 60 -20 53 0 60 -2 60 -20 0 -18 7
-20 60 -20 53 0 60 -2 60 -20 0 -17 7 -20 40 -20 33 0 40 -3 40 -20 0 -18 7
-20 75 -20 68 0 75 -2 75 -20 0 -15 7 -20 25 -20 18 0 25 -5 25 -20 0 -18 7
-20 60 -20 53 0 60 -2 60 -20 0 -17 7 -20 40 -20 33 0 40 -3 40 -20 0 -18 7
-20 55 -20 48 0 55 -2 55 -20 0 -15 7 -20 25 -20 18 0 25 -5 25 -20 0 -18 7
-20 60 -20 53 0 60 -2 60 -20 0 -16 7 -20 35 -20 28 0 35 -4 35 -20 0 -17 7
-20 45 -20 38 0 45 -3 45 -20 0 -13 7 -20 20 -20 13 0 20 -7 20 -20 0 -18 7
-20 55 -20 48 0 55 -2 55 -20 0 -15 7 -20 25 -20 18 0 25 -5 25 -20 0 -17 7
-20 40 -20 33 0 40 -3 40 -20 0 -13 7 -20 20 -20 13 0 20 -7 20 -20 0 -18 7
-20 60 -20 53 0 60 -2 60 -20 0 -13 7 -20 20 -20 13 0 20 -7 20 -20 0 -17 7
-20 40 -20 33 0 40 -3 40 -20 0 -13 7 -20 20 -20 13 0 20 -7 20 -20 0 -17 7
-20 40 -20 33 0 40 -3 40 -20 0 -13 7 -20 20 -20 13 0 20 -7 20 -20 0 -17 7
-20 40 -20 33 0 40 -3 40 -20 0 -13 7 -20 20 -20 13 0 20 -7 20 -20 0 -17 7
-20 40 -20 33 0 40 -3 40 -20 0 -13 7 -20 20 -20 13 0 20 -7 20 -20 0 -13 7
-20 20 -20 13 0 20 -7 20 -20 0 -16 7 -20 35 -20 28 0 35 -4 35 -20 0 -15 7
-20 25 -20 18 0 25 -5 25 -20 0 -13 7 -20 20 -20 13 0 20 -7 20 -20 0 -16 7
-20 35 -20 28 0 35 -4 35 -20 0 -15 7 -20 25 -20 18 0 25 -5 25 -20 0 -13 7
-20 20 -20 13 0 20 -7 20 -20 0 -13 7 -20 20 -20 13 0 20 -7 20 -20 0 -17 7
-20 40 -20 33 0 40 -3 40 -20 0 -13 7 -20 20 -20 13 0 20 -7 20 -20 0 -13 7
-20 20 -20 13 0 20 -7 20 -20 0 -13 7 -20 20 -20 13 0 20 -7 20 -20 0 -17 7
-20 40 -20 33 0 40 -3 40 -20 0 -13 7 -20 20 -20 13 0 20 -7 20 -20 0 -13 7
-20 20 -20 13 0 20 -7 20 -20 0 -13 7 -20 20 -20 13 0 20 -7 20 -20 0 -13 7
-20 20 -20 13 0 20 -7 20 -20 0 -13 7 -20 20 -20 13 0 20 -7 20 -20 0 -13 7
-20 20 -20 13 0 20 -7 20 -20 0 -13 7 -20 20 -20 13 0 20 -7 20 -20 0 -13 7
-20 20 -20 13 0 20 -7 20 -20 0 -13 7 -20 20 -20 13 0 20 -7 20 -20 0 -13 7
-20 20 -20 13 0 20 -7 20 -20 0 -13 7 -20 20 -20 13 0 20 -7 20 -20 0 -13 7
-20 20 -20 13 0 20 -7 20 -20 0 -11 7 -20 15 -20 8 0 15 -9 15 -20 0 -15 7
-20 25 -20 23 0 25 -4 25 -40 0 -33 3 -40 20 -40 13 0 20 -7 20 -20 0 -13 7
-20 20 -20 17 0 20 -7 20 -40 0 -33 3 -40 20 -40 13 0 20 -7 20 -20 0 -13 7
-20 20 -20 13 0 20 -7 20 -20 0 -13 7 -20 20 -20 13 0 20 -7 20 -20 0 -13 7
-20 20 -20 17 0 20 -7 20 -40 0 -33 3 -40 20 -40 13 0 20 -7 20 -20 0 -13 7
-20 20 -20 13 0 20 -7 20 -20 0 -13 7 -20 20 -20 17 0 20 -7 20 -40 0 -33 3
-40 20 -40 13 0 20 -7 20 -20 0 -13 7 -20 20 -20 13 0 20 -7 20 -20 0 -13 7
-20 20 -20 13 0 20 -7 20 -20 0 -11 6 -20 14 -20 9 0 17 -15 21 -40 5 -30 11
-40 26 -40 12 0 19 -7 19 -20 0 -11 6 -20 14 -20 9 0 17 -15 21 -40 5 -30 11
-40 26 -40 16 0 19 -7 19 -40 0 -33 3 -40 20 -40 13 0 20 -7 20 -20 0 -13 7
-20 20 -20 13 0 20 -7 20 -20 0 -11 6 -20 14 -20 9 0 17 -15 21 -40 5 -30 11
-40 26 -40 16 0 19 -7 19 -40 0 -33 3 -40 20 -40 13 0 20 -7 20 -20 0 -13 7
-20 20 -20 17 0 20 -7 20 -40 0 -28 4 -40 14 -40 9 0 17 -15 21 -40 5 -30 11
-40 26 -40 16 0 19 -7 19 -40 0 -33 3 -40 20 -40 13 0 20 -7 20 -20 0 -11 6
-20 14 -20 14 0 26 -42 26 -91 0 -22 5 -29 20 -29 17 0 20 -7 20 -40 0 -33 3
-40 20 -40 17 0 20 -7 20 -40 0 -33 3 -40 20 -40 13 0 20 -7 20 -20 0 -11 6
-20 14 -20 14 0 26 -42 26 -91 0 -22 5 -29 20 -29 17 0 20 -7 20 -40 0 -33 3
-40 20 -40 17 0 20 -7 20 -40 0 -33 3 -40 20 -40 17 0 20 -7 20 -40 0 -33 3
-40 20 -40 18 0 20 -7 20 -60 0 -53 2 -60 20 -60 17 0 20 -7 20 -40 0 -33 3
-40 20 -40 18 0 20 -7 20 -60 0 -53 2 -60 20 -60 17 0 20 -7 20 -40 0 -33 3
-40 20 -40 18 0 20 -7 20 -80 0 -73 2 -80 20 -80 17 0 20 -7 20 -40 0 -27 4
-40 14 -40 16 0 26 -43 26 -111 0 -35 4 -49 14 -49 14 0 26 -42 26 -91 0 -22
5 -29 20 -29 19 0 20 -7 20 -100 0 -78 3 -100 14 -100 16 0 26 -43 26 -111 0
-42 3 -49 20 -49 19 0 20 -7 20 -120 0 -95 3 -120 14 -120 19 0 26 -45 26
-171 0 -86 3 -109 14 -109 22 0 26 -48 26 -291 0 -188 2 -229 14 -229 21 0 26
-47 26 -251 0 -161 2 -189 15 -189 13 0 15 -31 15 -220 0 -189 -2 -220 -15
-220 -13 0 -15 -22 -15 -139 0 -177 -8 -261 -26 -261 -11 0 -14 -40 -14 -209
0 -223 -5 -271 -26 -271 -11 0 -14 -22 -14 -100 0 -93 -1 -100 -20 -100 -19 0
-20 -7 -20 -120 0 -113 -1 -120 -20 -120 -18 0 -20 -7 -20 -60 0 -53 -2 -60
-20 -60 -18 0 -20 -7 -20 -89 0 -106 -8 -151 -26 -151 -9 0 -14 -11 -14 -29 0
-49 -12 -91 -26 -91 -10 0 -14 -14 -14 -49 0 -68 -10 -111 -26 -111 -8 0 -14
-9 -14 -20 0 -13 -7 -20 -20 -20 -19 0 -20 -7 -20 -100 0 -93 -1 -100 -20
-100 -17 0 -20 -7 -20 -40 0 -33 -3 -40 -20 -40 -18 0 -20 -7 -20 -60 0 -53
-2 -60 -20 -60 -17 0 -20 -7 -20 -40 0 -33 -3 -40 -20 -40 -18 0 -20 -7 -20
-60 0 -53 -2 -60 -20 -60 -17 0 -20 -7 -20 -40 0 -33 -3 -40 -20 -40 -18 0
-20 -7 -20 -60 0 -53 -2 -60 -20 -60 -13 0 -20 -7 -20 -20 0 -13 -7 -20 -20
-20 -18 0 -20 -7 -20 -60 0 -53 -2 -60 -20 -60 -17 0 -20 -7 -20 -40 0 -33 -3
-40 -20 -40 -17 0 -20 -7 -20 -40 0 -33 -3 -40 -20 -40 -17 0 -20 -7 -20 -40
0 -33 -3 -40 -20 -40 -17 0 -20 -7 -20 -40 0 -33 -3 -40 -20 -40 -17 0 -20 -7
-20 -40 0 -33 -3 -40 -20 -40 -17 0 -20 -7 -20 -40 0 -33 -3 -40 -20 -40 -13
0 -20 -7 -20 -20 0 -13 -7 -20 -20 -20 -17 0 -20 -7 -20 -40 0 -33 -3 -40 -20
-40 -17 0 -20 -7 -20 -40 0 -33 -3 -40 -20 -40 -13 0 -20 -7 -20 -20 0 -13 -7
-20 -19 -20 -15 0 -21 -10 -26 -40 -4 -23 -12 -40 -20 -40 -8 0 -16 -17 -20
-40 -4 -25 -12 -40 -21 -40 -8 0 -14 -9 -14 -20 0 -13 -7 -20 -19 -20 -15 0
-21 -10 -26 -40 -4 -25 -12 -40 -21 -40 -8 0 -14 -9 -14 -20 0 -13 -7 -20 -19
-20 -15 0 -21 -10 -26 -40 -4 -25 -12 -40 -21 -40 -8 0 -14 -9 -14 -20 0 -13
-7 -20 -19 -20 -15 0 -21 -10 -26 -40 -4 -25 -12 -40 -21 -40 -8 0 -14 -9 -14
-20 0 -13 -7 -20 -20 -20 -13 0 -20 -7 -20 -20 0 -13 -7 -20 -19 -20 -15 0
-21 -10 -26 -40 -4 -25 -12 -40 -21 -40 -8 0 -14 -9 -14 -20 0 -13 -7 -20 -20
-20 -13 0 -20 -7 -20 -20 0 -13 -7 -20 -20 -20 -13 0 -20 -7 -20 -20 0 -13 -7
-20 -20 -20 -13 0 -20 -7 -20 -20 0 -13 -7 -20 -20 -20 -13 0 -20 -7 -20 -20
0 -13 -7 -20 -20 -20 -13 0 -20 -7 -20 -20 0 -13 -7 -20 -20 -20 -13 0 -20 -7
-20 -20 0 -13 -7 -20 -20 -20 -13 0 -20 -7 -20 -20 0 -13 -7 -20 -19 -20 -15
0 -21 -10 -26 -40 -5 -30 -11 -40 -26 -40 -12 0 -19 -7 -19 -20 0 -11 -7 -20
-15 -20 -8 0 -15 -9 -15 -20 0 -13 -7 -20 -20 -20 -13 0 -20 -7 -20 -20 0 -13
-7 -20 -20 -20 -13 0 -20 -7 -20 -20 0 -13 -7 -20 -20 -20 -13 0 -20 -7 -20
-20 0 -13 -7 -20 -20 -20 -13 0 -20 -7 -20 -20 0 -13 -7 -20 -20 -20 -13 0
-20 -7 -20 -20 0 -13 -7 -20 -20 -20 -13 0 -20 -7 -20 -20 0 -13 -7 -20 -20
-20 -13 0 -20 -7 -20 -20 0 -13 -7 -20 -20 -20 -13 0 -20 -7 -20 -20 0 -13 -7
-20 -20 -20 -13 0 -20 -7 -20 -20 0 -13 -7 -20 -20 -20 -13 0 -20 -7 -20 -20
0 -13 -7 -20 -20 -20 -13 0 -20 -7 -20 -20 0 -13 -7 -20 -20 -20 -13 0 -20 -7
-20 -20 0 -13 -7 -20 -20 -20 -13 0 -20 -7 -20 -20 0 -13 -7 -20 -20 -20 -13
0 -20 -7 -20 -20 0 -17 -7 -20 -39 -20 -38 0 -39 -1 -46 -40 -6 -38 -9 -40
-41 -40 -27 0 -34 -4 -34 -20 0 -13 -7 -20 -20 -20 -13 0 -20 -7 -20 -20 0
-13 -7 -20 -20 -20 -13 0 -20 -7 -20 -20 0 -13 -7 -20 -20 -20 -13 0 -20 -7
-20 -20 0 -13 -7 -20 -20 -20 -13 0 -20 -7 -20 -20 0 -13 -7 -20 -20 -20 -13
0 -20 -7 -20 -20 0 -17 -7 -20 -40 -20 -33 0 -40 -3 -40 -20 0 -13 -7 -20 -20
-20 -13 0 -20 -7 -20 -20 0 -17 -7 -20 -40 -20 -33 0 -40 -3 -40 -20 0 -13 -7
-20 -20 -20 -13 0 -20 -7 -20 -20 0 -13 -7 -20 -20 -20 -13 0 -20 -7 -20 -20
0 -15 -7 -20 -25 -20 -18 0 -25 -5 -25 -20 0 -16 -7 -20 -35 -20 -28 0 -35 -4
-35 -20 0 -15 -7 -20 -25 -20 -18 0 -25 -5 -25 -20 0 -16 -7 -20 -35 -20 -28
0 -35 -4 -35 -20 0 -17 -7 -20 -40 -20 -33 0 -40 -3 -40 -20 0 -15 -7 -20 -25
-20 -18 0 -25 -5 -25 -20 0 -16 -7 -20 -35 -20 -28 0 -35 -4 -35 -20 0 -15 -7
-20 -25 -20 -18 0 -25 -5 -25 -20 0 -16 -7 -20 -35 -20 -28 0 -35 -4 -35 -20
0 -17 -7 -20 -40 -20 -33 0 -40 -3 -40 -20 0 -15 -7 -20 -25 -20 -18 0 -25 -5
-25 -20 0 -18 -7 -20 -55 -20 -48 0 -55 -2 -55 -20 0 -13 -7 -20 -20 -20 -13
0 -20 -7 -20 -20 0 -17 -7 -20 -45 -20 -38 0 -45 -3 -45 -20 0 -16 -7 -20 -35
-20 -28 0 -35 -4 -35 -20 0 -17 -7 -20 -40 -20 -33 0 -40 -3 -40 -20 0 -17 -7
-20 -40 -20 -33 0 -40 -3 -40 -20 0 -18 -7 -20 -60 -20 -53 0 -60 -2 -60 -20
0 -15 -7 -20 -25 -20 -18 0 -25 -5 -25 -20 0 -18 -7 -20 -55 -20 -48 0 -55 -2
-55 -20 0 -17 -7 -20 -40 -20 -33 0 -40 -3 -40 -20 0 -18 -7 -20 -60 -20 -53
0 -60 -2 -60 -20 0 -17 -7 -20 -40 -20 -33 0 -40 -3 -40 -20 0 -18 -7 -20 -60
-20 -53 0 -60 -2 -60 -20 0 -17 -7 -20 -45 -20 -38 0 -45 -3 -45 -20 0 -19 -7
-20 -95 -20 -88 0 -95 -1 -95 -20 0 -17 -7 -20 -40 -20 -33 0 -40 -3 -40 -20
0 -18 -7 -20 -80 -20 -73 0 -80 -2 -80 -20 0 -17 -7 -20 -40 -20 -33 0 -40 -3
-40 -20 0 -19 -7 -20 -120 -20 -113 0 -120 -1 -120 -20 0 -18 -7 -20 -60 -20
-53 0 -60 -2 -60 -20 0 -19 -7 -20 -120 -20 -113 0 -120 -1 -120 -20 0 -19 -7
-20 -100 -20 -93 0 -100 -1 -100 -20 0 -20 -7 -20 -320 -20 -313 0 -320 0
-320 -20 0 -20 -7 -20 -540 -20 -533 0 -540 0 -540 20 0 20 -7 20 -305 20
-298 0 -305 0 -305 20 0 19 -7 20 -95 20 -88 0 -95 1 -95 20 0 19 -7 20 -140
20 -133 0 -140 1 -140 20 0 18 -7 20 -60 20 -53 0 -60 2 -60 20 0 19 -7 20
-105 20 -98 0 -105 1 -105 20 0 18 -7 20 -55 20 -48 0 -55 2 -55 20 0 18 -7
20 -80 20 -73 0 -80 2 -80 20 0 17 -7 20 -40 20 -33 0 -40 3 -40 20 0 18 -7
20 -80 20 -73 0 -80 2 -80 20 0 17 -7 20 -40 20 -33 0 -40 3 -40 20 0 18 -7
20 -80 20 -73 0 -80 2 -80 20 0 17 -7 20 -40 20 -33 0 -40 3 -40 20 0 18 -7
20 -60 20 -53 0 -60 2 -60 20 0 15 -7 20 -25 20 -18 0 -25 5 -25 20 0 18 -7
20 -55 20 -48 0 -55 2 -55 20 0 17 -7 20 -40 20 -33 0 -40 3 -40 20 0 17 -7
20 -40 20 -33 0 -40 3 -40 20 0 17 -7 20 -40 20 -33 0 -40 3 -40 20 0 17 -7
20 -40 20 -33 0 -40 3 -40 20 0 17 -7 20 -40 20 -33 0 -40 3 -40 20 0 17 -7
20 -40 20 -33 0 -40 3 -40 20 0 17 -7 20 -40 20 -33 0 -40 3 -40 20 0 17 -7
20 -40 20 -33 0 -40 3 -40 20 0 15 -7 20 -25 20 -18 0 -25 5 -25 20 0 18 -7
20 -55 20 -48 0 -55 2 -55 20 0 13 -7 20 -20 20 -13 0 -20 7 -20 20 0 17 -7
20 -40 20 -33 0 -40 3 -40 20 0 13 -7 20 -20 20 -13 0 -20 7 -20 20 0 17 -7
20 -40 20 -33 0 -40 3 -40 20 0 13 -7 20 -20 20 -13 0 -20 7 -20 20 0 17 -7
20 -40 20 -33 0 -40 3 -40 20 0 13 -7 20 -20 20 -13 0 -20 7 -20 20 0 17 -7
20 -40 20 -33 0 -40 3 -40 20 0 13 -7 20 -20 20 -13 0 -20 7 -20 20 0 17 -7
20 -40 20 -33 0 -40 3 -40 20 0 13 -7 20 -20 20 -13 0 -20 7 -20 20 0 15 -7
20 -25 20 -18 0 -25 5 -25 20 0 16 -7 20 -35 20 -28 0 -35 4 -35 20 0 13 -7
20 -20 20 -13 0 -20 7 -20 20 0 13 -7 20 -20 20 -13 0 -20 7 -20 20 0 17 -7
20 -40 20 -33 0 -40 3 -40 20 0 13 -7 20 -20 20 -13 0 -20 7 -20 20 0 13 -7
20 -20 20 -13 0 -20 7 -20 20 0 13 -7 20 -20 20 -13 0 -20 7 -20 20 0 17 -7
20 -40 20 -33 0 -40 3 -40 20 0 13 -7 20 -20 20 -13 0 -20 7 -20 20 0 13 -7
20 -20 20 -13 0 -20 7 -20 20 0 13 -7 20 -20 20 -13 0 -20 7 -20 20 0 15 -7
20 -25 20 -18 0 -25 5 -25 20 0 11 -7 20 -15 20 -8 0 -15 9 -15 20 0 17 -7 20
-40 20 -33 0 -40 3 -40 20 0 13 -7 20 -20 20 -13 0 -20 7 -20 20 0 13 -7 20
-20 20 -13 0 -20 7 -20 20 0 13 -7 20 -20 20 -13 0 -20 7 -20 20 0 13 -7 20
-20 20 -13 0 -20 7 -20 20 0 13 -7 20 -20 20 -13 0 -20 7 -20 20 0 13 -7 20
-19 20 -15 0 -21 10 -26 40 -6 38 -9 40 -41 40 -33 0 -34 1 -34 40 0 33 -3 40
-20 40 -13 0 -20 7 -20 20 0 13 -7 20 -20 20 -13 0 -20 7 -20 20 0 13 -7 20
-20 20 -13 0 -20 7 -20 20 0 13 -7 20 -20 20 -17 0 -20 7 -20 40 0 33 -3 40
-20 40 -13 0 -20 7 -20 20 0 13 -7 20 -20 20 -13 0 -20 7 -20 20 0 13 -7 20
-20 20 -13 0 -20 7 -20 20 0 13 -7 20 -20 20 -17 0 -20 7 -20 40 0 33 -3 40
-20 40 -13 0 -20 7 -20 20 0 13 -7 20 -20 20 -13 0 -20 7 -20 20 0 13 -7 20
-20 20 -13 0 -20 7 -20 20 0 13 -7 20 -20 20 -17 0 -20 7 -20 40 0 33 -3 40
-20 40 -13 0 -20 7 -20 20 0 13 -7 20 -20 20 -13 0 -20 7 -20 20 0 13 -7 20
-20 20 -13 0 -20 7 -20 20 0 13 -7 20 -20 20 -17 0 -20 7 -20 40 0 33 -3 40
-20 40 -13 0 -20 7 -20 20 0 13 -7 20 -20 20 -17 0 -20 7 -20 40 0 33 -3 40
-20 40 -13 0 -20 7 -20 20 0 13 -7 20 -20 20 -17 0 -20 7 -20 40 0 33 -3 40
-19 40 -15 0 -21 10 -26 40 -4 25 -12 40 -21 40 -8 0 -14 9 -14 20 0 13 -7 20
-19 20 -15 0 -21 10 -26 40 -4 25 -12 40 -21 40 -10 0 -14 12 -14 40 0 33 -3
40 -20 40 -13 0 -20 7 -20 20 0 13 -7 20 -20 20 -17 0 -20 7 -20 40 0 33 -3
40 -20 40 -17 0 -20 7 -20 40 0 33 -3 40 -20 40 -17 0 -20 7 -20 40 0 33 -3
40 -20 40 -17 0 -20 7 -20 40 0 33 -3 40 -20 40 -17 0 -20 7 -20 40 0 33 -3
40 -20 40 -13 0 -20 7 -20 20 0 13 -7 20 -20 20 -18 0 -20 7 -20 60 0 53 -2
60 -20 60 -17 0 -20 7 -20 40 0 33 -3 40 -20 40 -17 0 -20 7 -20 40 0 33 -3
40 -20 40 -17 0 -20 7 -20 40 0 33 -3 40 -20 40 -18 0 -20 7 -20 60 0 53 -2
60 -20 60 -17 0 -20 7 -20 40 0 33 -3 40 -20 40 -15 0 -20 7 -20 29 0 48 -12
91 -25 91 -8 0 -16 18 -20 40 -4 25 -12 40 -21 40 -10 0 -14 13 -14 49 0 68
-10 111 -26 111 -10 0 -14 13 -14 40 0 33 -3 40 -20 40 -17 0 -20 7 -20 49 0
68 -10 111 -26 111 -10 0 -14 13 -14 40 0 33 -3 40 -20 40 -19 0 -20 7 -20
100 0 93 -1 100 -20 100 -17 0 -20 7 -20 49 0 68 -10 111 -26 111 -11 0 -14
17 -14 69 0 87 -9 131 -26 131 -11 0 -14 19 -14 80 0 73 -2 80 -20 80 -19 0
-20 7 -20 189 0 204 -5 251 -26 251 -11 0 -14 22 -14 100 0 91 -2 100 -19 100
-17 0 -19 15 -23 297 -8 490 2 1183 17 1183 17 0 25 47 25 151 0 68 3 89 14
89 17 0 26 83 26 241 0 94 3 119 14 119 14 0 26 79 26 181 0 43 4 59 14 59 17
0 26 44 26 131 0 62 2 69 20 69 18 0 20 7 20 60 0 53 2 60 20 60 18 0 20 7 20
80 0 61 3 80 14 80 14 0 26 42 26 91 0 22 5 29 20 29 18 0 20 7 20 80 0 73 2
80 20 80 17 0 20 7 20 40 0 27 4 40 14 40 16 0 26 43 26 111 0 42 3 49 20 49
17 0 20 7 20 40 0 33 3 40 20 40 18 0 20 7 20 60 0 53 2 60 20 60 17 0 20 7
20 40 0 33 3 40 20 40 18 0 20 7 20 60 0 53 2 60 20 60 17 0 20 7 20 40 0 33
3 40 20 40 17 0 20 7 20 40 0 33 3 40 20 40 17 0 20 7 20 40 0 33 3 40 20 40
18 0 20 7 20 60 0 53 2 60 20 60 13 0 20 7 20 20 0 13 7 20 20 20 17 0 20 7
20 40 0 33 3 40 20 40 17 0 20 7 20 40 0 33 3 40 20 40 17 0 20 7 20 40 0 28
4 40 14 40 9 0 17 15 21 40 5 30 11 40 26 40 16 0 19 7 19 40 0 33 3 40 20 40
13 0 20 7 20 20 0 13 7 20 20 20 17 0 20 7 20 40 0 33 3 40 20 40 17 0 20 7
20 40 0 33 3 40 20 40 17 0 20 7 20 40 0 33 3 40 20 40 13 0 20 7 20 20 0 13
7 20 20 20 17 0 20 7 20 40 0 33 3 40 20 40 13 0 20 7 20 20 0 13 7 20 20 20
17 0 20 7 20 40 0 33 3 40 20 40 13 0 20 7 20 20 0 13 7 20 20 20 13 0 20 7
20 20 0 13 7 20 20 20 17 0 20 7 20 40 0 33 3 40 20 40 13 0 20 7 20 20 0 13
7 20 20 20 13 0 20 7 20 20 0 13 7 20 20 20 17 0 20 7 20 40 0 33 3 40 20 40
13 0 20 7 20 20 0 13 7 20 20 20 13 0 20 7 20 20 0 11 6 20 14 20 9 0 17 15
21 40 5 30 11 40 26 40 12 0 19 7 19 20 0 13 7 20 20 20 13 0 20 7 20 20 0 11
6 20 14 20 9 0 17 15 21 40 5 30 11 40 26 40 12 0 19 7 19 20 0 13 7 20 20 20
13 0 20 7 20 20 0 13 7 20 20 20 13 0 20 7 20 20 0 13 7 20 20 20 13 0 20 7
20 20 0 11 7 20 15 20 8 0 15 9 15 20 0 13 7 20 20 20 13 0 20 7 20 20 0 13 7
20 20 20 13 0 20 7 20 20 0 13 7 20 19 20 15 0 21 10 26 40 6 37 9 40 40 40
31 0 34 3 40 40 5 30 11 40 26 40 12 0 19 7 19 20 0 16 7 20 35 20 28 0 35 4
35 20 0 13 7 20 20 20 13 0 20 7 20 20 0 13 7 20 20 20 13 0 20 7 20 20 0 13
7 20 20 20 13 0 20 7 20 20 0 15 7 20 25 20 18 0 25 5 25 20 0 13 7 20 20 20
13 0 20 7 20 20 0 13 7 20 20 20 13 0 20 7 20 20 0 13 7 20 20 20 13 0 20 7
20 20 0 13 7 20 20 20 13 0 20 7 20 20 0 13 7 20 20 20 13 0 20 7 20 20 0 16
7 20 34 20 32 0 35 2 41 40 7 39 8 40 46 40 32 0 39 3 39 20 0 13 7 20 20 20
13 0 20 7 20 20 0 17 7 20 40 20 33 0 40 3 40 20 0 13 7 20 20 20 13 0 20 7
20 20 0 17 7 20 40 20 33 0 40 3 40 20 0 13 7 20 20 20 13 0 20 7 20 20 0 13
7 20 20 20 13 0 20 7 20 20 0 16 7 20 35 20 28 0 35 4 35 20 0 15 7 20 25 20
18 0 25 5 25 20 0 13 7 20 20 20 13 0 20 7 20 20 0 17 7 20 40 20 33 0 40 3
40 20 0 13 7 20 20 20 13 0 20 7 20 20 0 17 7 20 40 20 33 0 40 3 40 20 0 13
7 20 20 20 13 0 20 7 20 20 0 17 7 20 40 20 33 0 40 3 40 20 0 17 7 20 40 20
33 0 40 3 40 20 0 17 7 20 40 20 33 0 40 3 40 20 0 13 7 20 20 20 13 0 20 7
20 20 0 17 7 20 40 20 33 0 40 3 40 20 0 13 7 20 20 20 13 0 20 7 20 20 0 18
7 20 60 20 53 0 60 2 60 20 0 13 7 20 20 20 13 0 20 7 20 20 0 18 7 20 60 20
53 0 60 2 60 20 0 13 7 20 20 20 13 0 20 7 20 20 0 18 7 20 60 20 53 0 60 2
60 20 0 16 7 20 35 20 28 0 35 4 35 20 0 17 7 20 45 20 38 0 45 3 45 20 0 17
7 20 40 20 33 0 40 3 40 20 0 18 7 20 60 20 53 0 60 2 60 20 0 17 7 20 40 20
33 0 40 3 40 20 0 18 7 20 60 20 53 0 60 2 60 20 0 17 7 20 40 20 33 0 40 3
40 20 0 18 7 20 80 20 73 0 80 2 80 20 0 17 7 20 40 20 33 0 40 3 40 20 0 18
7 20 80 20 73 0 80 2 80 20 0 17 7 20 40 20 33 0 40 3 40 20 0 19 7 20 115 20
108 0 115 1 115 20 0 18 7 20 60 20 53 0 60 2 60 20 0 18 7 20 85 20 78 0 85
2 85 20 0 18 7 20 60 20 53 0 60 2 60 20 0 19 7 20 215 20 208 0 215 1 215 20
0 19 7 20 125 20 118 0 125 1 125 20 0 19 7 20 220 20 213 0 220 1 220 20 0
20 7 20 380 20 373 0 380 0 380 -20z"/>
<path d="M34070 17180 c0 -33 -3 -40 -20 -40 -13 0 -20 -7 -20 -20 0 -13 -7
-20 -19 -20 -15 0 -21 -10 -26 -40 -4 -25 -12 -40 -21 -40 -8 0 -14 -9 -14
-20 0 -13 -7 -20 -20 -20 -13 0 -20 -7 -20 -20 0 -13 -7 -20 -20 -20 -13 0
-20 -7 -20 -20 0 -13 -7 -20 -20 -20 -17 0 -20 -7 -20 -40 0 -33 -3 -40 -20
-40 -13 0 -20 -7 -20 -20 0 -13 -7 -20 -20 -20 -13 0 -20 -7 -20 -20 0 -13 -7
-20 -20 -20 -13 0 -20 -7 -20 -20 0 -13 -7 -20 -20 -20 -17 0 -20 -7 -20 -40
0 -33 -3 -40 -20 -40 -13 0 -20 -7 -20 -20 0 -13 -7 -20 -20 -20 -13 0 -20 -7
-20 -20 0 -13 -7 -20 -20 -20 -13 0 -20 -7 -20 -20 0 -13 -7 -20 -20 -20 -13
0 -20 -7 -20 -20 0 -13 -7 -20 -20 -20 -13 0 -20 -7 -20 -20 0 -13 -7 -20 -20
-20 -13 0 -20 -7 -20 -20 0 -13 -7 -20 -20 -20 -13 0 -20 -7 -20 -20 0 -13 -7
-20 -20 -20 -13 0 -20 -7 -20 -20 0 -13 -7 -20 -20 -20 -13 0 -20 -7 -20 -20
0 -13 -7 -20 -20 -20 -13 0 -20 -7 -20 -20 0 -13 -7 -20 -20 -20 -13 0 -20 -7
-20 -20 0 -13 -7 -20 -20 -20 -13 0 -20 -7 -20 -20 0 -13 -7 -20 -20 -20 -13
0 -20 -7 -20 -20 0 -13 -7 -20 -20 -20 -13 0 -20 -7 -20 -20 0 -13 -7 -20 -20
-20 -13 0 -20 -7 -20 -20 0 -13 -7 -20 -20 -20 -13 0 -20 -7 -20 -20 0 -13 -7
-20 -20 -20 -13 0 -20 -7 -20 -20 0 -13 -7 -20 -20 -20 -13 0 -20 -7 -20 -20
0 -13 -7 -20 -20 -20 -13 0 -20 -7 -20 -20 0 -13 -7 -20 -20 -20 -13 0 -20 -7
-20 -20 0 -13 -7 -20 -20 -20 -13 0 -20 -7 -20 -20 0 -13 -7 -20 -20 -20 -13
0 -20 -7 -20 -20 0 -13 -7 -20 -20 -20 -13 0 -20 -7 -20 -20 0 -13 -7 -20 -20
-20 -13 0 -20 -7 -20 -20 0 -13 -7 -20 -20 -20 -13 0 -20 -7 -20 -20 0 -13 -7
-20 -20 -20 -13 0 -20 -7 -20 -20 0 -13 -7 -20 -20 -20 -13 0 -20 -7 -20 -20
0 -13 -7 -20 -20 -20 -13 0 -20 -7 -20 -20 0 -13 -7 -20 -20 -20 -13 0 -20 -7
-20 -20 0 -13 -7 -20 -20 -20 -13 0 -20 -7 -20 -20 0 -13 -7 -20 -20 -20 -13
0 -20 -7 -20 -20 0 -13 -7 -20 -20 -20 -13 0 -20 -7 -20 -20 0 -13 -7 -20 -20
-20 -13 0 -20 -7 -20 -20 0 -13 -7 -20 -20 -20 -13 0 -20 -7 -20 -20 0 -13 -7
-20 -20 -20 -13 0 -20 -7 -20 -20 0 -13 -7 -20 -20 -20 -13 0 -20 -7 -20 -20
0 -13 -7 -20 -20 -20 -13 0 -20 -7 -20 -20 0 -15 -7 -20 -25 -20 -18 0 -25 -5
-25 -20 0 -13 -7 -20 -20 -20 -13 0 -20 -7 -20 -20 0 -16 -7 -20 -35 -20 -28
0 -35 -4 -35 -20 0 -13 -7 -20 -20 -20 -13 0 -20 -7 -20 -20 0 -13 -7 -20 -20
-20 -13 0 -20 -7 -20 -20 0 -13 -7 -20 -20 -20 -13 0 -20 -7 -20 -20 0 -17 -7
-20 -40 -20 -33 0 -40 -3 -40 -20 0 -13 -7 -20 -20 -20 -13 0 -20 -7 -20 -20
0 -17 -7 -20 -40 -20 -33 0 -40 -3 -40 -20 0 -13 -7 -20 -20 -20 -13 0 -20 -7
-20 -20 0 -13 -7 -20 -20 -20 -13 0 -20 -7 -20 -20 0 -13 -7 -20 -20 -20 -13
0 -20 -7 -20 -20 0 -17 -7 -20 -40 -20 -33 0 -40 -3 -40 -20 0 -13 -7 -20 -20
-20 -13 0 -20 -7 -20 -20 0 -13 -7 -20 -20 -20 -13 0 -20 -7 -20 -20 0 -13 -7
-20 -20 -20 -13 0 -20 -7 -20 -20 0 -17 -7 -20 -40 -20 -33 0 -40 -3 -40 -20
0 -13 -7 -20 -20 -20 -13 0 -20 -7 -20 -20 0 -13 -7 -20 -20 -20 -13 0 -20 -7
-20 -20 0 -13 -7 -20 -20 -20 -13 0 -20 -7 -20 -20 0 -17 -7 -20 -40 -20 -33
0 -40 -3 -40 -20 0 -13 -7 -20 -20 -20 -13 0 -20 -7 -20 -20 0 -17 -7 -20 -40
-20 -33 0 -40 -3 -40 -20 0 -13 -7 -20 -20 -20 -13 0 -20 -7 -20 -20 0 -17 -7
-20 -40 -20 -33 0 -40 -3 -40 -20 0 -13 -7 -20 -20 -20 -13 0 -20 -7 -20 -20
0 -13 -7 -20 -20 -20 -13 0 -20 -7 -20 -20 0 -17 -7 -20 -40 -20 -33 0 -40 -3
-40 -20 0 -13 -7 -20 -20 -20 -13 0 -20 -7 -20 -20 0 -13 -7 -20 -20 -20 -13
0 -20 -7 -20 -20 0 -17 -7 -20 -40 -20 -33 0 -40 -3 -40 -20 0 -13 -7 -20 -20
-20 -13 0 -20 -7 -20 -20 0 -17 -7 -20 -40 -20 -33 0 -40 -3 -40 -20 0 -13 -7
-20 -20 -20 -13 0 -20 -7 -20 -20 0 -17 -7 -20 -40 -20 -33 0 -40 -3 -40 -20
0 -17 -7 -20 -40 -20 -33 0 -40 -3 -40 -20 0 -15 -7 -20 -25 -20 -18 0 -25 -5
-25 -20 0 -16 -7 -20 -35 -20 -28 0 -35 -4 -35 -20 0 -17 -7 -20 -40 -20 -33
0 -40 -3 -40 -20 0 -13 -7 -20 -20 -20 -13 0 -20 -7 -20 -20 0 -17 -7 -20 -40
-20 -33 0 -40 -3 -40 -20 0 -13 -7 -20 -20 -20 -13 0 -20 -7 -20 -20 0 -17 -7
-20 -40 -20 -33 0 -40 -3 -40 -20 0 -13 -7 -20 -20 -20 -13 0 -20 -7 -20 -20
0 -17 -7 -20 -40 -20 -33 0 -40 -3 -40 -20 0 -17 -7 -20 -40 -20 -33 0 -40 -3
-40 -20 0 -17 -7 -20 -40 -20 -33 0 -40 -3 -40 -20 0 -13 -7 -20 -20 -20 -13
0 -20 -7 -20 -20 0 -17 -7 -20 -40 -20 -33 0 -40 -3 -40 -20 0 -17 -7 -20 -40
-20 -33 0 -40 -3 -40 -20 0 -17 -7 -20 -40 -20 -33 0 -40 -3 -40 -20 0 -13 -7
-20 -20 -20 -13 0 -20 -7 -20 -20 0 -18 -7 -20 -60 -20 -53 0 -60 -2 -60 -20
0 -13 -7 -20 -20 -20 -13 0 -20 -7 -20 -20 0 -17 -7 -20 -40 -20 -33 0 -40 -3
-40 -20 0 -17 -7 -20 -40 -20 -33 0 -40 -3 -40 -20 0 -17 -7 -20 -40 -20 -33
0 -40 -3 -40 -20 0 -17 -7 -20 -40 -20 -33 0 -40 -3 -40 -20 0 -17 -7 -20 -40
-20 -33 0 -40 -3 -40 -20 0 -17 -7 -20 -40 -20 -33 0 -40 -3 -40 -20 0 -17 -7
-20 -45 -20 -38 0 -45 -3 -45 -20 0 -16 -7 -20 -35 -20 -28 0 -35 -4 -35 -20
0 -18 -7 -20 -60 -20 -53 0 -60 -2 -60 -20 0 -17 -7 -20 -40 -20 -33 0 -40 -3
-40 -20 0 -17 -7 -20 -40 -20 -33 0 -40 -3 -40 -20 0 -17 -7 -20 -40 -20 -33
0 -40 -3 -40 -20 0 -17 -7 -20 -45 -20 -38 0 -45 -3 -45 -20 0 -17 -7 -20 -40
-20 -33 0 -40 -3 -40 -20 0 -18 -7 -20 -55 -20 -48 0 -55 -2 -55 -20 0 -17 -7
-20 -40 -20 -33 0 -40 -3 -40 -20 0 -18 -7 -20 -60 -20 -53 0 -60 -2 -60 -20
0 -17 -7 -20 -40 -20 -33 0 -40 -3 -40 -20 0 -18 -7 -20 -60 -20 -53 0 -60 -2
-60 -20 0 -17 -7 -20 -40 -20 -33 0 -40 -3 -40 -20 0 -18 -7 -20 -60 -20 -53
0 -60 -2 -60 -20 0 -18 -7 -20 -60 -20 -53 0 -60 -2 -60 -20 0 -18 -7 -20 -60
-20 -53 0 -60 -2 -60 -20 0 -17 -7 -20 -40 -20 -33 0 -40 -3 -40 -20 0 -18 -7
-20 -65 -20 -58 0 -65 -2 -65 -20 0 -18 -7 -20 -55 -20 -48 0 -55 -2 -55 -20
0 -18 -7 -20 -80 -20 -73 0 -80 -2 -80 -20 0 -17 -7 -20 -40 -20 -33 0 -40 -3
-40 -20 0 -18 -7 -20 -80 -20 -73 0 -80 -2 -80 -20 0 -18 -7 -20 -60 -20 -53
0 -60 -2 -60 -20 0 -18 -7 -20 -80 -20 -73 0 -80 -2 -80 -20 0 -17 -7 -20 -40
-20 -33 0 -40 -3 -40 -20 0 -19 -7 -20 -100 -20 -93 0 -100 -1 -100 -20 0 -17
-7 -20 -45 -20 -38 0 -45 -3 -45 -20 0 -19 -7 -20 -95 -20 -88 0 -95 -1 -95
-20 0 -18 -7 -20 -60 -20 -53 0 -60 -2 -60 -20 0 -19 -7 -20 -120 -20 -113 0
-120 -1 -120 -20 0 -18 -7 -20 -60 -20 -53 0 -60 -2 -60 -20 0 -19 -7 -20
-120 -20 -113 0 -120 -1 -120 -20 0 -18 -7 -20 -65 -20 -58 0 -65 -2 -65 -20
0 -19 -7 -20 -155 -20 -148 0 -155 -1 -155 -20 0 -19 -7 -20 -100 -20 -93 0
-100 -1 -100 -20 0 -19 -7 -20 -140 -20 -133 0 -140 -1 -140 -20 0 -19 -7 -20
-140 -20 -133 0 -140 -1 -140 -20 0 -20 -7 -20 -300 -20 -293 0 -300 0 -300
-20 0 -19 -7 -20 -145 -20 -138 0 -145 -1 -145 -20 0 -20 -7 -20 -435 -20
-428 0 -435 0 -435 -20 0 -20 -7 -20 -280 -20 -273 0 -280 0 -280 20 0 20 -7
20 -400 20 -393 0 -400 0 -400 20 0 19 -7 20 -160 20 -153 0 -160 1 -160 20 0
20 -7 20 -325 20 -318 0 -325 0 -325 20 0 19 -7 20 -115 20 -108 0 -115 1
-115 20 0 19 -7 20 -140 20 -133 0 -140 1 -140 20 0 19 -7 20 -100 20 -93 0
-100 1 -100 20 0 19 -7 20 -160 20 -153 0 -160 1 -160 20 0 18 -7 20 -60 20
-53 0 -60 2 -60 20 0 19 -7 20 -120 20 -113 0 -120 1 -120 20 0 18 -7 20 -65
20 -58 0 -65 2 -65 20 0 19 -7 20 -115 20 -108 0 -115 1 -115 20 0 18 -7 20
-60 20 -53 0 -60 2 -60 20 0 19 -7 20 -100 20 -93 0 -100 1 -100 20 0 18 -7
20 -60 20 -53 0 -60 2 -60 20 0 18 -7 20 -80 20 -73 0 -80 2 -80 20 0 18 -7
20 -60 20 -53 0 -60 2 -60 20 0 18 -7 20 -80 20 -73 0 -80 2 -80 20 0 17 -7
20 -40 20 -33 0 -40 3 -40 20 0 18 -7 20 -80 20 -73 0 -80 2 -80 20 0 18 -7
20 -60 20 -53 0 -60 2 -60 20 0 18 -7 20 -80 20 -73 0 -80 2 -80 20 0 17 -7
20 -40 20 -33 0 -40 3 -40 20 0 18 -7 20 -60 20 -53 0 -60 2 -60 20 0 17 -7
20 -45 20 -38 0 -45 3 -45 20 0 18 -7 20 -75 20 -68 0 -75 2 -75 20 0 17 -7
20 -40 20 -33 0 -40 3 -40 20 0 18 -7 20 -60 20 -53 0 -60 2 -60 20 0 17 -7
20 -40 20 -33 0 -40 3 -40 20 0 18 -7 20 -60 20 -53 0 -60 2 -60 20 0 17 -7
20 -40 20 -33 0 -40 3 -40 20 0 18 -7 20 -60 20 -53 0 -60 2 -60 20 0 17 -7
20 -40 20 -33 0 -40 3 -40 20 0 17 -7 20 -45 20 -38 0 -45 3 -45 20 0 16 -7
20 -35 20 -28 0 -35 4 -35 20 0 18 -7 20 -60 20 -53 0 -60 2 -60 20 0 17 -7
20 -40 20 -33 0 -40 3 -40 20 0 18 -7 20 -60 20 -53 0 -60 2 -60 20 0 13 -7
20 -20 20 -13 0 -20 7 -20 20 0 18 -7 20 -60 20 -53 0 -60 2 -60 20 0 15 -7
20 -25 20 -18 0 -25 5 -25 20 0 18 -7 20 -55 20 -48 0 -55 2 -55 20 0 17 -7
20 -40 20 -33 0 -40 3 -40 20 0 17 -7 20 -40 20 -33 0 -40 3 -40 20 0 17 -7
20 -40 20 -33 0 -40 3 -40 20 0 17 -7 20 -40 20 -33 0 -40 3 -40 20 0 15 -7
20 -25 20 -18 0 -25 5 -25 20 0 18 -7 20 -55 20 -48 0 -55 2 -55 20 0 13 -7
20 -20 20 -13 0 -20 7 -20 20 0 17 -7 20 -45 20 -38 0 -45 3 -45 20 0 16 -7
20 -35 20 -28 0 -35 4 -35 20 0 17 -7 20 -40 20 -33 0 -40 3 -40 20 0 13 -7
20 -20 20 -13 0 -20 7 -20 20 0 18 -7 20 -60 20 -53 0 -60 2 -60 20 0 13 -7
20 -20 20 -13 0 -20 7 -20 20 0 17 -7 20 -40 20 -33 0 -40 3 -40 20 0 13 -7
20 -20 20 -13 0 -20 7 -20 20 0 17 -7 20 -40 20 -33 0 -40 3 -40 20 0 17 -7
20 -40 20 -33 0 -40 3 -40 20 0 17 -7 20 -40 20 -33 0 -40 3 -40 20 0 13 -7
20 -20 20 -13 0 -20 7 -20 20 0 17 -7 20 -40 20 -33 0 -40 3 -40 20 0 13 -7
20 -20 20 -13 0 -20 7 -20 20 0 17 -7 20 -40 20 -33 0 -40 3 -40 20 0 15 -7
20 -25 20 -18 0 -25 5 -25 20 0 16 -7 20 -35 20 -28 0 -35 4 -35 20 0 13 -7
20 -20 20 -13 0 -20 7 -20 20 0 17 -7 20 -45 20 -38 0 -45 3 -45 20 0 16 -7
20 -35 20 -28 0 -35 4 -35 20 0 17 -7 20 -40 20 -33 0 -40 3 -40 20 0 13 -7
20 -20 20 -13 0 -20 7 -20 20 0 13 -7 20 -20 20 -13 0 -20 7 -20 20 0 17 -7
20 -40 20 -33 0 -40 3 -40 20 0 13 -7 20 -20 20 -13 0 -20 7 -20 20 0 13 -7
20 -20 20 -13 0 -20 7 -20 20 0 17 -7 20 -40 20 -33 0 -40 3 -40 20 0 13 -7
20 -20 20 -13 0 -20 7 -20 20 0 17 -7 20 -40 20 -33 0 -40 3 -40 20 0 13 -7
20 -20 20 -13 0 -20 7 -20 20 0 17 -7 20 -40 20 -33 0 -40 3 -40 20 0 13 -7
20 -20 20 -13 0 -20 7 -20 20 0 13 -7 20 -20 20 -13 0 -20 7 -20 20 0 13 -7
20 -20 20 -13 0 -20 7 -20 20 0 17 -7 20 -40 20 -33 0 -40 3 -40 20 0 13 -7
20 -20 20 -13 0 -20 7 -20 20 0 13 -7 20 -20 20 -13 0 -20 7 -20 20 0 13 -7
20 -20 20 -13 0 -20 7 -20 20 0 17 -7 20 -40 20 -33 0 -40 3 -40 20 0 13 -7
20 -20 20 -13 0 -20 7 -20 20 0 17 -7 20 -40 20 -33 0 -40 3 -40 20 0 13 -7
20 -20 20 -13 0 -20 7 -20 20 0 17 -7 20 -39 20 -38 0 -39 1 -46 40 -6 38 -9
40 -41 40 -27 0 -34 4 -34 20 0 13 -7 20 -20 20 -13 0 -20 7 -20 20 0 15 -7
20 -25 20 -18 0 -25 5 -25 20 0 13 -7 20 -20 20 -13 0 -20 7 -20 20 0 16 -7
20 -35 20 -28 0 -35 4 -35 20 0 13 -7 20 -20 20 -13 0 -20 7 -20 20 0 13 -7
20 -20 20 -13 0 -20 7 -20 20 0 13 -7 20 -20 20 -13 0 -20 7 -20 20 0 13 -7
20 -20 20 -13 0 -20 7 -20 20 0 13 -7 20 -20 20 -13 0 -20 7 -20 20 0 13 -7
20 -20 20 -13 0 -20 7 -20 20 0 13 -7 20 -20 20 -13 0 -20 7 -20 20 0 13 -7
20 -20 20 -13 0 -20 7 -20 20 0 13 -7 20 -20 20 -13 0 -20 7 -20 20 0 13 -7
20 -20 20 -13 0 -20 7 -20 20 0 13 -7 20 -20 20 -13 0 -20 7 -20 20 0 13 -7
20 -20 20 -13 0 -20 7 -20 20 0 13 -7 20 -20 20 -13 0 -20 7 -20 20 0 13 -7
20 -20 20 -13 0 -20 7 -20 20 0 13 -7 20 -20 20 -13 0 -20 7 -20 20 0 17 -7
20 -40 20 l-40 0 0 -40 c0 -33 3 -40 20 -40 13 0 20 -7 20 -20 0 -13 7 -20 20
-20 13 0 20 -7 20 -20 0 -11 6 -20 14 -20 9 0 17 -15 21 -40 5 -30 11 -40 26
-40 12 0 19 -7 19 -20 0 -13 7 -20 20 -20 13 0 20 -7 20 -20 0 -13 7 -20 20
-20 17 0 20 -7 20 -40 0 -33 3 -40 20 -40 13 0 20 -7 20 -20 0 -13 7 -20 20
-20 17 0 20 -7 20 -40 0 -33 3 -40 20 -40 13 0 20 -7 20 -20 0 -13 7 -20 20
-20 17 0 20 -7 20 -40 0 -33 3 -40 20 -40 13 0 20 -7 20 -20 0 -13 7 -20 20
-20 13 0 20 -7 20 -20 0 -13 7 -20 20 -20 13 0 20 -7 20 -20 0 -11 6 -20 14
-20 9 0 17 -15 21 -40 5 -30 11 -40 26 -40 12 0 19 -7 19 -20 0 -13 7 -20 20
-20 13 0 20 -7 20 -20 0 -13 7 -20 20 -20 13 0 20 -7 20 -20 0 -13 7 -20 20
-20 17 0 20 -7 20 -40 0 -33 3 -40 20 -40 13 0 20 -7 20 -20 0 -11 6 -20 14
-20 9 0 17 -15 21 -40 5 -30 11 -40 26 -40 12 0 19 -7 19 -20 0 -13 7 -20 20
-20 17 0 20 -7 20 -40 0 -33 3 -40 20 -40 13 0 20 -7 20 -20 0 -13 7 -20 20
-20 13 0 20 -7 20 -20 0 -13 7 -20 20 -20 13 0 20 -7 20 -20 0 -11 6 -20 14
-20 9 0 17 -15 21 -40 5 -30 11 -40 26 -40 12 0 19 -7 19 -20 0 -13 7 -20 20
-20 13 0 20 -7 20 -20 0 -13 7 -20 20 -20 13 0 20 -7 20 -20 0 -13 7 -20 20
-20 17 0 20 -7 20 -40 0 -33 3 -40 20 -40 13 0 20 -7 20 -20 0 -13 7 -20 20
-20 13 0 20 -7 20 -20 0 -13 7 -20 20 -20 13 0 20 -7 20 -20 0 -11 6 -20 14
-20 9 0 17 -15 21 -40 5 -30 11 -40 26 -40 12 0 19 -7 19 -20 0 -13 7 -20 20
-20 17 0 20 -7 20 -40 0 -33 3 -40 20 -40 13 0 20 -7 20 -20 0 -13 7 -20 20
-20 13 0 20 -7 20 -20 0 -13 7 -20 20 -20 13 0 20 -7 20 -20 0 -13 7 -20 20
-20 13 0 20 -7 20 -20 0 -13 7 -20 20 -20 13 0 20 -7 20 -20 0 -11 6 -20 14
-20 9 0 17 -15 21 -40 5 -30 11 -40 26 -40 12 0 19 -7 19 -20 0 -13 7 -20 20
-20 13 0 20 -7 20 -20 0 -13 7 -20 20 -20 13 0 20 -7 20 -20 0 -13 7 -20 20
-20 17 0 20 -7 20 -40 0 -33 3 -40 20 -40 13 0 20 -7 20 -20 0 -13 7 -20 20
-20 13 0 20 -7 20 -20 0 -13 7 -20 20 -20 13 0 20 -7 20 -20 0 -11 6 -20 14
-20 9 0 17 -15 21 -40 5 -30 11 -40 26 -40 12 0 19 -7 19 -20 0 -13 7 -20 20
-20 17 0 20 -7 20 -40 0 -33 3 -40 20 -40 13 0 20 -7 20 -20 0 -13 7 -20 20
-20 13 0 20 -7 20 -20 0 -13 7 -20 20 -20 13 0 20 -7 20 -20 0 -13 7 -20 20
-20 13 0 20 -7 20 -20 0 -11 6 -20 14 -20 9 0 17 -15 21 -40 5 -30 11 -40 26
-40 12 0 19 -7 19 -20 0 -13 7 -20 20 -20 13 0 20 -7 20 -20 0 -13 7 -20 20
-20 13 0 20 -7 20 -20 0 -13 7 -20 20 -20 13 0 20 -7 20 -20 0 -13 7 -20 20
-20 17 0 20 -7 20 -40 0 -33 3 -40 20 -40 13 0 20 -7 20 -20 0 -13 7 -20 20
-20 13 0 20 -7 20 -20 0 -13 7 -20 20 -20 13 0 20 -7 20 -20 0 -11 6 -20 14
-20 9 0 17 -15 21 -40 5 -30 11 -40 26 -40 12 0 19 -7 19 -20 0 -13 7 -20 20
-20 17 0 20 -7 20 -40 0 -33 3 -40 20 -40 13 0 20 -7 20 -20 0 -13 7 -20 20
-20 13 0 20 -7 20 -20 0 -13 7 -20 20 -20 13 0 20 -7 20 -20 0 -13 7 -20 20
-20 13 0 20 -7 20 -20 0 -11 7 -20 15 -20 8 0 15 -9 15 -20 0 -13 7 -20 19
-20 15 0 21 -10 26 -40 5 -30 11 -40 26 -40 12 0 19 -7 19 -20 0 -13 7 -20 20
-20 13 0 20 -7 20 -20 0 -13 7 -20 20 -20 13 0 20 -7 20 -20 0 -13 7 -20 20
-20 17 0 20 -7 20 -40 0 -33 3 -40 20 -40 13 0 20 -7 20 -20 0 -13 7 -20 20
-20 13 0 20 -7 20 -20 0 -13 7 -20 20 -20 13 0 20 -7 20 -20 0 -11 6 -20 14
-20 9 0 17 -15 21 -40 5 -30 11 -40 26 -40 12 0 19 -7 19 -20 0 -13 7 -20 20
-20 17 0 20 -7 20 -40 0 -33 3 -40 20 -40 13 0 20 -7 20 -20 0 -13 7 -20 20
-20 13 0 20 -7 20 -20 0 -13 7 -20 20 -20 13 0 20 -7 20 -20 0 -13 7 -20 20
-20 13 0 20 -7 20 -20 0 -11 6 -20 14 -20 9 0 17 -15 21 -40 5 -30 11 -40 26
-40 12 0 19 -7 19 -20 0 -13 7 -20 20 -20 13 0 20 -7 20 -20 0 -13 7 -20 20
-20 13 0 20 -7 20 -20 0 -13 7 -20 20 -20 13 0 20 -7 20 -20 0 -13 7 -20 20
-20 13 0 20 -7 20 -20 0 -11 7 -20 15 -20 8 0 15 -9 15 -20 0 -13 7 -20 19
-20 15 0 21 -10 26 -40 5 -30 11 -40 26 -40 12 0 19 -7 19 -20 0 -13 7 -20 20
-20 17 0 20 -7 20 -40 0 -33 3 -40 20 -40 13 0 20 -7 20 -20 0 -13 7 -20 20
-20 13 0 20 -7 20 -20 0 -11 6 -20 14 -20 9 0 17 -15 21 -40 5 -30 11 -40 26
-40 12 0 19 -7 19 -20 0 -13 7 -20 20 -20 13 0 20 -7 20 -20 0 -13 7 -20 20
-20 13 0 20 -7 20 -20 0 -13 7 -20 20 -20 13 0 20 -7 20 -20 0 -11 6 -20 14
-20 9 0 17 -15 21 -40 5 -30 11 -40 26 -40 12 0 19 -7 19 -20 0 -13 7 -20 20
-20 13 0 20 -7 20 -20 0 -13 7 -20 20 -20 13 0 20 -7 20 -20 0 -13 7 -20 20
-20 13 0 20 -7 20 -20 0 -11 7 -20 15 -20 8 0 15 -9 15 -20 0 -13 7 -20 19
-20 15 0 21 -10 26 -40 5 -30 11 -40 26 -40 12 0 19 -7 19 -20 0 -13 7 -20 20
-20 17 0 20 -7 20 -40 0 -33 3 -40 20 -40 13 0 20 -7 20 -20 0 -13 7 -20 20
-20 13 0 20 -7 20 -20 0 -11 7 -20 15 -20 8 0 15 -9 15 -20 0 -13 7 -20 19
-20 15 0 21 -10 26 -40 5 -30 11 -40 26 -40 12 0 19 -7 19 -20 0 -13 7 -20 20
-20 13 0 20 -7 20 -20 0 -13 7 -20 20 -20 13 0 20 -7 20 -20 0 -11 6 -20 14
-20 9 0 17 -15 21 -40 5 -30 11 -40 26 -40 12 0 19 -7 19 -20 0 -13 7 -20 20
-20 13 0 20 -7 20 -20 0 -13 7 -20 20 -20 13 0 20 -7 20 -20 0 -13 7 -20 20
-20 13 0 20 -7 20 -20 0 -11 7 -20 15 -20 8 0 15 -9 15 -20 0 -13 7 -20 19
-20 15 0 21 -10 26 -40 5 -30 11 -40 26 -40 12 0 19 -7 19 -20 0 -13 7 -20 20
-20 17 0 20 -7 20 -40 0 -33 3 -40 20 -40 13 0 20 -7 20 -20 0 -13 7 -20 20
-20 17 0 20 -7 20 -40 0 -33 3 -40 20 -40 13 0 20 -7 20 -20 0 -13 7 -20 20
-20 13 0 20 -7 20 -20 0 -13 7 -20 20 -20 13 0 20 -7 20 -20 0 -13 7 -20 20
-20 13 0 20 -7 20 -20 0 -13 7 -20 20 -20 13 0 20 -7 20 -20 0 -11 6 -20 14
-20 9 0 17 -15 21 -40 5 -30 11 -40 26 -40 12 0 19 -7 19 -20 0 -13 7 -20 20
-20 13 0 20 -7 20 -20 0 -13 7 -20 20 -20 13 0 20 -7 20 -20 0 -13 7 -20 20
-20 13 0 20 -7 20 -20 0 -13 7 -20 20 -20 13 0 20 -7 20 -20 0 -13 7 -20 20
-20 17 0 20 -7 20 -40 0 -33 3 -40 20 -40 13 0 20 -7 20 -20 0 -13 7 -20 20
-20 17 0 20 -7 20 -40 0 -33 3 -40 20 -40 13 0 20 -7 20 -20 0 -13 7 -20 20
-20 13 0 20 -7 20 -20 0 -11 7 -20 15 -20 8 0 15 -9 15 -20 0 -13 7 -20 19
-20 15 0 21 -10 26 -40 5 -30 11 -40 26 -40 12 0 19 -7 19 -20 0 -13 7 -20 20
-20 13 0 20 -7 20 -20 0 -13 7 -20 20 -20 13 0 20 -7 20 -20 0 -11 6 -20 14
-20 9 0 17 -15 21 -40 5 -30 11 -40 26 -40 12 0 19 -7 19 -20 0 -13 7 -20 20
-20 13 0 20 -7 20 -20 0 -13 7 -20 20 -20 13 0 20 -7 20 -20 0 -13 7 -20 20
-20 13 0 20 -7 20 -20 0 -13 7 -20 20 -20 13 0 20 -7 20 -20 0 -13 7 -20 20
-20 17 0 20 -7 20 -40 0 -33 3 -40 20 -40 13 0 20 -7 20 -20 0 -13 7 -20 20
-20 17 0 20 -7 20 -40 0 -33 3 -40 20 -40 13 0 20 -7 20 -20 0 -13 7 -20 20
-20 13 0 20 -7 20 -20 0 -11 7 -20 15 -20 8 0 15 -9 15 -20 0 -13 7 -20 19
-20 15 0 21 -10 26 -40 5 -30 11 -40 26 -40 12 0 19 -7 19 -20 0 -13 7 -20 20
-20 13 0 20 -7 20 -20 0 -13 7 -20 20 -20 13 0 20 -7 20 -20 0 -11 6 -20 14
-20 9 0 17 -15 21 -40 5 -30 11 -40 26 -40 12 0 19 -7 19 -20 0 -13 7 -20 20
-20 13 0 20 -7 20 -20 0 -13 7 -20 20 -20 13 0 20 -7 20 -20 0 -13 7 -20 20
-20 13 0 20 -7 20 -20 0 -13 7 -20 20 -20 13 0 20 -7 20 -20 0 -13 7 -20 20
-20 17 0 20 -7 20 -40 0 -33 3 -40 20 -40 13 0 20 -7 20 -20 0 -13 7 -20 20
-20 17 0 20 -7 20 -40 0 -33 3 -40 20 -40 13 0 20 -7 20 -20 0 -13 7 -20 20
-20 13 0 20 -7 20 -20 0 -13 7 -20 20 -20 13 0 20 -7 20 -20 0 -11 6 -20 14
-20 9 0 17 -15 21 -40 5 -30 11 -40 26 -40 12 0 19 -7 19 -20 0 -13 7 -20 20
-20 13 0 20 -7 20 -20 0 -13 7 -20 20 -20 13 0 20 -7 20 -20 0 -11 6 -20 14
-20 9 0 17 -15 21 -40 5 -30 11 -40 26 -40 12 0 19 -7 19 -20 0 -13 7 -20 20
-20 13 0 20 -7 20 -20 0 -13 7 -20 20 -20 13 0 20 -7 20 -20 0 -13 7 -20 20
-20 13 0 20 -7 20 -20 0 -13 7 -20 20 -20 13 0 20 -7 20 -20 0 -13 7 -20 20
-20 17 0 20 -7 20 -40 0 -33 3 -40 20 -40 13 0 20 -7 20 -20 0 -13 7 -20 20
-20 17 0 20 -7 20 -40 0 -33 3 -40 20 -40 13 0 20 -7 20 -20 0 -13 7 -20 20
-20 13 0 20 -7 20 -20 0 -11 7 -20 15 -20 8 0 15 -9 15 -20 0 -13 7 -20 19
-20 15 0 21 -10 26 -40 5 -30 11 -40 26 -40 12 0 19 -7 19 -20 0 -13 7 -20 20
-20 13 0 20 -7 20 -20 0 -13 7 -20 20 -20 13 0 20 -7 20 -20 0 -11 6 -20 14
-20 9 0 17 -15 21 -40 5 -30 11 -40 26 -40 12 0 19 -7 19 -20 0 -13 7 -20 20
-20 13 0 20 -7 20 -20 0 -13 7 -20 20 -20 13 0 20 -7 20 -20 0 -13 7 -20 20
-20 13 0 20 -7 20 -20 0 -11 7 -20 15 -20 8 0 15 -9 15 -20 0 -13 7 -20 19
-20 15 0 21 -10 26 -40 5 -30 11 -40 26 -40 12 0 19 -7 19 -20 0 -13 7 -20 20
-20 17 0 20 -7 20 -40 0 -33 3 -40 20 -40 13 0 20 -7 20 -20 0 -13 7 -20 20
-20 13 0 20 -7 20 -20 0 -13 7 -20 20 -20 13 0 20 -7 20 -20 0 -13 7 -20 20
-20 17 0 20 -7 20 -40 0 -33 3 -40 20 -40 13 0 20 -7 20 -20 0 -13 7 -20 20
-20 13 0 20 -7 20 -20 0 -13 7 -20 20 -20 13 0 20 -7 20 -20 0 -11 7 -20 15
-20 8 0 15 -9 15 -20 0 -13 7 -20 19 -20 15 0 21 -10 26 -40 5 -30 11 -40 26
-40 12 0 19 -7 19 -20 0 -13 7 -20 20 -20 13 0 20 -7 20 -20 0 -13 7 -20 20
-20 13 0 20 -7 20 -20 0 -13 7 -20 20 -20 13 0 20 -7 20 -20 0 -13 7 -20 20
-20 17 0 20 -7 20 -40 0 -33 3 -40 20 -40 13 0 20 -7 20 -20 0 -13 7 -20 20
-20 17 0 20 -7 20 -40 0 -33 3 -40 20 -40 13 0 20 -7 20 -20 0 -13 7 -20 20
-20 13 0 20 -7 20 -20 0 -13 7 -20 20 -20 13 0 20 -7 20 -20 0 -13 7 -20 20
-20 17 0 20 -7 20 -40 0 -33 3 -40 20 -40 13 0 20 -7 20 -20 0 -13 7 -20 20
-20 13 0 20 -7 20 -20 0 -13 7 -20 20 -20 13 0 20 -7 20 -20 0 -11 6 -20 14
-20 9 0 17 -15 21 -40 5 -30 11 -40 26 -40 12 0 19 -7 19 -20 0 -13 7 -20 20
-20 13 0 20 -7 20 -20 0 -13 7 -20 20 -20 13 0 20 -7 20 -20 0 -13 7 -20 20
-20 17 0 20 -7 20 -40 0 -33 3 -40 20 -40 13 0 20 -7 20 -20 0 -13 7 -20 20
-20 13 0 20 -7 20 -20 0 -13 7 -20 20 -20 17 0 20 -7 20 -40 0 -33 3 -40 20
-40 13 0 20 -7 20 -20 0 -11 7 -20 15 -20 8 0 15 -9 15 -20 0 -13 7 -20 19
-20 15 0 21 -10 26 -40 5 -30 11 -40 26 -40 12 0 19 -7 19 -20 0 -13 7 -20 20
-20 17 0 20 -7 20 -40 0 -33 3 -40 20 -40 13 0 20 -7 20 -20 0 -13 7 -20 20
-20 13 0 20 -7 20 -20 0 -11 7 -20 15 -20 8 0 15 -9 15 -20 0 -13 7 -20 19
-20 15 0 21 -10 26 -40 5 -30 11 -40 26 -40 12 0 19 -7 19 -20 0 -13 7 -20 20
-20 17 0 20 -7 20 -40 0 -33 3 -40 20 -40 13 0 20 -7 20 -20 0 -13 7 -20 20
-20 17 0 20 -7 20 -40 0 -33 3 -40 20 -40 13 0 20 -7 20 -20 0 -13 7 -20 20
-20 13 0 20 -7 20 -20 0 -13 7 -20 20 -20 13 0 20 -7 20 -20 0 -13 7 -20 20
-20 13 0 20 -7 20 -20 0 -11 7 -20 15 -20 8 0 15 -9 15 -20 0 -13 7 -20 19
-20 15 0 21 -10 26 -40 6 -37 9 -40 40 -40 31 0 34 -3 40 -40 5 -30 11 -40 26
-40 12 0 19 -7 19 -20 0 -13 7 -20 20 -20 13 0 20 -7 20 -20 0 -16 7 -20 35
-20 28 0 35 -4 35 -20 0 -15 7 -20 25 -20 18 0 25 -5 25 -20 0 -13 7 -20 20
-20 13 0 20 -7 20 -20 0 -13 7 -20 20 -20 13 0 20 -7 20 -20 0 -13 7 -20 20
-20 13 0 20 -7 20 -20 0 -17 7 -20 40 -20 33 0 40 -3 40 -20 0 -13 7 -20 20
-20 13 0 20 -7 20 -20 0 -18 7 -20 55 -20 48 0 55 -2 55 -20 0 -15 7 -20 25
-20 18 0 25 -5 25 -20 0 -18 7 -20 60 -20 53 0 60 -2 60 -20 0 -19 7 -20 100
-20 93 0 100 -1 100 -20 0 -19 7 -20 115 -20 108 0 115 1 115 20 0 18 7 20 85
20 78 0 85 2 85 20 0 18 7 20 60 20 53 0 60 2 60 20 0 17 7 20 40 20 33 0 40
3 40 20 0 17 7 20 40 20 33 0 40 3 40 20 0 13 7 20 20 20 13 0 20 7 20 20 0
16 7 20 35 20 28 0 35 4 35 20 0 15 7 20 25 20 18 0 25 5 25 20 0 13 7 20 20
20 13 0 20 7 20 20 0 13 7 20 20 20 13 0 20 7 20 20 0 13 7 20 20 20 13 0 20
7 20 20 0 13 7 20 20 20 13 0 20 7 20 20 0 13 7 20 20 20 13 0 20 7 20 20 0
13 7 20 20 20 13 0 20 7 20 20 0 13 7 20 20 20 13 0 20 7 20 20 0 13 7 20 20
20 13 0 20 7 20 20 0 13 7 20 20 20 13 0 20 7 20 20 0 13 7 20 20 20 13 0 20
7 20 20 0 13 7 20 20 20 13 0 20 7 20 20 0 13 7 20 20 20 13 0 20 7 20 20 0
13 7 20 20 20 13 0 20 7 20 20 0 13 7 20 20 20 13 0 20 7 20 20 0 13 7 20 20
20 13 0 20 7 20 20 0 11 6 20 14 20 9 0 17 15 21 40 5 30 11 40 26 40 12 0 19
7 19 20 0 13 7 20 20 20 13 0 20 7 20 20 0 11 7 20 15 20 8 0 15 9 15 20 0 13
7 20 19 20 15 0 21 10 26 40 5 30 11 40 26 40 12 0 19 7 19 20 0 13 7 20 20
20 17 0 20 7 20 40 0 33 3 40 20 40 13 0 20 7 20 20 0 13 7 20 20 20 13 0 20
7 20 20 0 11 7 20 15 20 8 0 15 9 15 20 0 13 7 20 19 20 15 0 21 10 26 40 5
30 11 40 26 40 12 0 19 7 19 20 0 13 7 20 20 20 13 0 20 7 20 20 0 13 7 20 20
20 13 0 20 7 20 20 0 13 7 20 20 20 13 0 20 7 20 20 0 13 7 20 20 20 13 0 20
7 20 20 0 13 7 20 20 20 17 0 20 7 20 40 0 33 3 40 20 40 13 0 20 7 20 20 0
13 7 20 20 20 17 0 20 7 20 40 0 33 3 40 20 40 13 0 20 7 20 20 0 13 7 20 20
20 17 0 20 7 20 40 0 33 3 40 20 40 13 0 20 7 20 20 0 13 7 20 20 20 13 0 20
7 20 20 0 11 6 20 14 20 9 0 17 15 21 40 5 30 11 40 26 40 12 0 19 7 19 20 0
13 7 20 20 20 13 0 20 7 20 20 0 13 7 20 20 20 13 0 20 7 20 20 0 13 7 20 20
20 13 0 20 7 20 20 0 13 7 20 20 20 13 0 20 7 20 20 0 13 7 20 20 20 13 0 20
7 20 20 0 13 7 20 20 20 13 0 20 7 20 20 0 13 7 20 20 20 13 0 20 7 20 20 0
13 7 20 20 20 17 0 20 7 20 40 0 33 3 40 20 40 13 0 20 7 20 20 0 13 7 20 20
20 17 0 20 7 20 40 0 33 3 40 20 40 13 0 20 7 20 20 0 13 7 20 20 20 17 0 20
7 20 40 0 33 3 40 20 40 13 0 20 7 20 20 0 13 7 20 20 20 13 0 20 7 20 20 0
13 7 20 20 20 13 0 20 7 20 20 0 13 7 20 20 20 17 0 20 7 20 40 0 39 1 40 34
40 32 0 35 2 41 40 6 37 9 40 40 40 31 0 34 3 40 40 5 30 11 40 26 40 12 0 19
7 19 20 0 13 7 20 20 20 13 0 20 7 20 20 0 13 7 20 20 20 13 0 20 7 20 20 0
13 7 20 20 20 13 0 20 7 20 20 0 11 6 20 14 20 9 0 17 15 21 40 5 30 11 40 26
40 12 0 19 7 19 20 0 11 6 20 14 20 9 0 17 15 21 40 5 30 11 40 26 40 12 0 19
7 19 20 0 11 6 20 14 20 9 0 17 15 21 40 5 30 11 40 26 40 12 0 19 7 19 20 0
13 7 20 20 20 13 0 20 7 20 20 0 13 7 20 20 20 13 0 20 7 20 20 0 13 7 20 20
20 13 0 20 7 20 20 0 13 7 20 20 20 13 0 20 7 20 20 0 13 7 20 20 20 13 0 20
7 20 20 0 13 7 20 20 20 13 0 20 7 20 20 0 11 7 20 15 20 8 0 15 9 15 20 0 13
7 20 19 20 15 0 21 10 26 40 5 30 11 40 26 40 12 0 19 7 19 20 0 13 7 20 20
20 13 0 20 7 20 20 0 13 7 20 20 20 13 0 20 7 20 20 0 11 6 20 14 20 9 0 17
15 21 40 5 30 11 40 26 40 12 0 19 7 19 20 0 13 7 20 20 20 17 0 20 7 20 40 0
33 3 40 20 40 13 0 20 7 20 20 0 13 7 20 20 20 17 0 20 7 20 40 0 33 3 40 20
40 13 0 20 7 20 20 0 13 7 20 20 20 13 0 20 7 20 20 0 13 7 20 20 20 13 0 20
7 20 20 0 13 7 20 20 20 13 0 20 7 20 20 0 13 7 20 20 20 13 0 20 7 20 20 0
13 7 20 20 20 13 0 20 7 20 20 0 13 7 20 20 20 13 0 20 7 20 20 0 13 7 20 20
20 13 0 20 7 20 20 0 11 7 20 15 20 8 0 15 9 15 20 0 13 7 20 19 20 15 0 21
10 26 40 5 30 11 40 26 40 12 0 19 7 19 20 0 13 7 20 20 20 17 0 20 7 20 40 0
33 3 40 20 40 13 0 20 7 20 20 0 13 7 20 20 20 17 0 20 7 20 40 0 33 3 40 20
40 13 0 20 7 20 20 0 13 7 20 20 20 13 0 20 7 20 20 0 13 7 20 20 20 13 0 20
7 20 20 0 11 6 20 14 20 9 0 17 15 21 40 5 30 11 40 26 40 12 0 19 7 19 20 0
13 7 20 20 20 13 0 20 7 20 20 0 13 7 20 20 20 13 0 20 7 20 20 0 13 7 20 20
20 13 0 20 7 20 20 0 13 7 20 20 20 13 0 20 7 20 20 0 13 7 20 20 20 13 0 20
7 20 20 0 13 7 20 20 20 13 0 20 7 20 20 0 13 7 20 20 20 17 0 20 7 20 40 0
33 3 40 20 40 13 0 20 7 20 20 0 13 7 20 20 20 17 0 20 7 20 40 0 33 3 40 20
40 13 0 20 7 20 20 0 13 7 20 20 20 17 0 20 7 20 40 0 33 3 40 20 40 13 0 20
7 20 20 0 13 7 20 20 20 13 0 20 7 20 20 0 13 7 20 20 20 13 0 20 7 20 20 0
11 6 20 14 20 9 0 17 15 21 40 5 30 11 40 26 40 12 0 19 7 19 20 0 13 7 20 20
20 13 0 20 7 20 20 0 13 7 20 20 20 13 0 20 7 20 20 0 13 7 20 20 20 13 0 20
7 20 20 0 13 7 20 20 20 13 0 20 7 20 20 0 13 7 20 20 20 13 0 20 7 20 20 0
13 7 20 20 20 13 0 20 7 20 20 0 13 7 20 20 20 17 0 20 7 20 40 0 33 3 40 20
40 13 0 20 7 20 20 0 13 7 20 20 20 13 0 20 7 20 20 0 11 6 20 14 20 9 0 17
15 21 40 5 30 11 40 26 40 12 0 19 7 19 20 0 11 7 20 15 20 8 0 15 9 15 20 0
13 7 20 19 20 15 0 21 10 26 40 5 30 11 40 26 40 12 0 19 7 19 20 0 13 7 20
20 20 13 0 20 7 20 20 0 11 6 20 14 20 9 0 17 15 21 40 5 30 11 40 26 40 12 0
19 7 19 20 0 13 7 20 20 20 13 0 20 7 20 20 0 13 7 20 20 20 13 0 20 7 20 20
0 13 7 20 20 20 13 0 20 7 20 20 0 13 7 20 20 20 13 0 20 7 20 20 0 13 7 20
20 20 13 0 20 7 20 20 0 13 7 20 20 20 17 0 20 7 20 40 0 33 3 40 20 40 13 0
20 7 20 20 0 13 7 20 20 20 13 0 20 7 20 20 0 13 7 20 20 20 13 0 20 7 20 20
0 11 6 20 14 20 9 0 17 15 21 40 5 30 11 40 26 40 12 0 19 7 19 20 0 13 7 20
20 20 17 0 20 7 20 40 0 33 3 40 20 40 13 0 20 7 20 20 0 13 7 20 20 20 13 0
20 7 20 20 0 11 6 20 14 20 9 0 17 15 21 40 5 30 11 40 26 40 12 0 19 7 19 20
0 13 7 20 20 20 13 0 20 7 20 20 0 13 7 20 20 20 13 0 20 7 20 20 0 13 7 20
20 20 13 0 20 7 20 20 0 13 7 20 20 20 13 0 20 7 20 20 0 13 7 20 20 20 13 0
20 7 20 20 0 13 7 20 20 20 17 0 20 7 20 40 0 33 3 40 20 40 13 0 20 7 20 20
0 13 7 20 20 20 13 0 20 7 20 20 0 13 7 20 20 20 13 0 20 7 20 20 0 11 6 20
14 20 9 0 17 15 21 40 5 30 11 40 26 40 12 0 19 7 19 20 0 13 7 20 20 20 17 0
20 7 20 40 0 33 3 40 20 40 13 0 20 7 20 20 0 13 7 20 20 20 13 0 20 7 20 20
0 11 7 20 15 20 8 0 15 9 15 20 0 13 7 20 19 20 15 0 21 10 26 40 5 30 11 40
26 40 12 0 19 7 19 20 0 13 7 20 20 20 13 0 20 7 20 20 0 13 7 20 20 20 13 0
20 7 20 20 0 13 7 20 20 20 13 0 20 7 20 20 0 13 7 20 20 20 13 0 20 7 20 20
0 13 7 20 20 20 13 0 20 7 20 20 0 11 6 20 14 20 9 0 17 15 21 40 5 30 11 40
26 40 12 0 19 7 19 20 0 13 7 20 20 20 13 0 20 7 20 20 0 13 7 20 20 20 17 0
20 7 20 40 0 33 3 40 20 40 13 0 20 7 20 20 0 13 7 20 20 20 17 0 20 7 20 40
0 33 3 40 20 40 13 0 20 7 20 20 0 13 7 20 20 20 13 0 20 7 20 20 0 13 7 20
20 20 13 0 20 7 20 20 0 11 6 20 14 20 9 0 17 15 21 40 5 30 11 40 26 40 12 0
19 7 19 20 0 13 7 20 20 20 13 0 20 7 20 20 0 13 7 20 20 20 13 0 20 7 20 20
0 13 7 20 20 20 13 0 20 7 20 20 0 13 7 20 20 20 13 0 20 7 20 20 0 13 7 20
20 20 13 0 20 7 20 20 0 11 6 20 14 20 9 0 17 15 21 40 5 30 11 40 26 40 12 0
19 7 19 20 0 13 7 20 20 20 13 0 20 7 20 20 0 13 7 20 20 20 17 0 20 7 20 40
0 33 3 40 20 40 13 0 20 7 20 20 0 13 7 20 20 20 17 0 20 7 20 40 0 33 3 40
20 40 13 0 20 7 20 20 0 13 7 20 20 20 13 0 20 7 20 20 0 13 7 20 20 20 13 0
20 7 20 20 0 11 6 20 14 20 9 0 17 15 21 40 5 30 11 40 26 40 12 0 19 7 19 20
0 13 7 20 20 20 13 0 20 7 20 20 0 13 7 20 20 20 13 0 20 7 20 20 0 13 7 20
20 20 13 0 20 7 20 20 0 13 7 20 20 20 13 0 20 7 20 20 0 13 7 20 20 20 13 0
20 7 20 20 0 11 6 20 14 20 9 0 17 15 21 40 5 30 11 40 26 40 12 0 19 7 19 20
0 13 7 20 20 20 13 0 20 7 20 20 0 13 7 20 20 20 17 0 20 7 20 40 0 33 3 40
20 40 13 0 20 7 20 20 0 13 7 20 20 20 17 0 20 7 20 40 0 33 3 40 20 40 13 0
20 7 20 20 0 13 7 20 20 20 13 0 20 7 20 20 0 11 6 20 14 20 9 0 17 15 21 40
5 30 11 40 26 40 12 0 19 7 19 20 0 13 7 20 20 20 13 0 20 7 20 20 0 13 7 20
20 20 13 0 20 7 20 20 0 13 7 20 20 20 13 0 20 7 20 20 0 13 7 20 20 20 13 0
20 7 20 20 0 13 7 20 20 20 13 0 20 7 20 20 0 13 7 20 20 20 13 0 20 7 20 20
0 11 6 20 14 20 9 0 17 15 21 40 5 30 11 40 26 40 12 0 19 7 19 20 0 13 7 20
20 20 13 0 20 7 20 20 0 13 7 20 20 20 17 0 20 7 20 40 0 33 3 40 20 40 13 0
20 7 20 20 0 13 7 20 20 20 17 0 20 7 20 40 0 33 3 40 20 40 13 0 20 7 20 20
0 13 7 20 20 20 13 0 20 7 20 20 0 13 7 20 20 20 13 0 20 7 20 20 0 11 6 20
14 20 9 0 17 15 21 40 5 30 11 40 26 40 12 0 19 7 19 20 0 13 7 20 20 20 13 0
20 7 20 20 0 13 7 20 20 20 13 0 20 7 20 20 0 13 7 20 20 20 13 0 20 7 20 20
0 13 7 20 20 20 13 0 20 7 20 20 0 13 7 20 20 20 13 0 20 7 20 20 0 13 7 20
20 20 13 0 20 7 20 20 0 13 7 20 20 20 17 0 20 7 20 40 0 33 3 40 20 40 13 0
20 7 20 20 0 13 7 20 20 20 17 0 20 7 20 40 0 33 3 40 20 40 13 0 20 7 20 20
0 13 7 20 20 20 17 0 20 7 20 40 0 33 3 40 20 40 13 0 20 7 20 20 0 13 7 20
20 20 13 0 20 7 20 20 0 13 7 20 20 20 13 0 20 7 20 20 0 13 7 20 20 20 13 0
20 7 20 20 0 11 6 20 14 20 9 0 17 15 21 40 5 30 11 40 26 40 12 0 19 7 19 20
0 13 7 20 20 20 13 0 20 7 20 20 0 13 7 20 20 20 13 0 20 7 20 20 0 13 7 20
20 20 13 0 20 7 20 20 0 11 6 20 14 20 9 0 17 15 21 40 5 30 11 40 26 40 12 0
19 7 19 20 0 11 6 20 14 20 9 0 17 15 21 40 5 30 11 40 26 40 12 0 19 7 19 20
0 11 6 20 14 20 9 0 17 15 21 40 5 30 11 40 26 40 12 0 19 7 19 20 0 13 7 20
20 20 17 0 20 7 20 40 0 33 3 40 20 40 13 0 20 7 20 20 0 13 7 20 20 20 13 0
20 7 20 20 0 13 7 20 20 20 13 0 20 7 20 20 0 13 7 20 20 20 17 0 20 7 20 40
0 33 3 40 20 40 13 0 20 7 20 20 0 13 7 20 20 20 17 0 20 7 20 40 0 33 3 40
20 40 13 0 20 7 20 20 0 11 6 20 14 20 9 0 17 15 21 40 5 30 11 40 26 40 12 0
19 7 19 20 0 11 6 20 14 20 9 0 17 15 21 40 5 30 11 40 26 40 12 0 19 7 19 20
0 13 7 20 20 20 17 0 20 7 20 40 0 33 3 40 20 40 13 0 20 7 20 20 0 11 6 20
14 20 14 0 26 42 26 91 0 22 5 29 20 29 13 0 20 7 20 20 0 13 7 20 20 20 17 0
20 7 20 40 0 33 3 40 20 40 13 0 20 7 20 20 0 13 7 20 20 20 17 0 20 7 20 40
0 33 3 40 20 40 13 0 20 7 20 20 0 13 7 20 20 20 17 0 20 7 20 40 0 33 3 40
20 40 13 0 20 7 20 20 0 13 7 20 20 20 17 0 20 7 20 40 0 28 4 40 14 40 9 0
17 15 21 40 5 30 11 40 26 40 16 0 19 7 19 40 0 33 3 40 20 40 13 0 20 7 20
20 0 11 6 20 14 20 9 0 17 15 21 40 4 23 12 40 20 40 8 0 16 17 20 40 5 30 11
40 26 40 16 0 19 7 19 40 0 33 3 40 20 40 13 0 20 7 20 20 0 11 6 20 14 20 14
0 26 42 26 91 0 18 5 29 14 29 9 0 17 15 21 40 5 30 11 40 26 40 17 0 19 8 19
60 l0 60 -40 0 -40 0 0 -40z"/>
</g>
</svg>
